<?xml version="1.0" encoding="UTF-8" standalone="no"?><!DOCTYPE svg PUBLIC "-//W3C//DTD SVG 1.1//EN" "http://www.w3.org/Graphics/SVG/1.1/DTD/svg11.dtd"><svg width="100%" height="100%" viewBox="0 0 40 40" version="1.1" xmlns="http://www.w3.org/2000/svg" xmlns:xlink="http://www.w3.org/1999/xlink" xml:space="preserve" xmlns:serif="http://www.serif.com/" style="fill-rule:evenodd;clip-rule:evenodd;stroke-linejoin:round;stroke-miterlimit:2;"><rect id="favicon" x="-0" y="0" width="40" height="40" style="fill:none;"/><rect x="11.031" y="1" width="8" height="8" style="fill:#a67459;"/><rect x="1.031" y="1" width="8" height="8" style="fill:#ccc;"/><rect x="11.031" y="11" width="8" height="8" style="fill:#a159a6;"/><rect x="1.031" y="11" width="8" height="8" style="fill:#ccc;"/><rect x="11.031" y="21" width="8" height="8" style="fill:#adb34d;"/><rect x="1.031" y="21" width="8" height="8" style="fill:#ccc;"/><rect x="11.031" y="31" width="8" height="8" style="fill:#73768c;"/><rect x="1.031" y="31" width="8" height="8" style="fill:#ccc;"/><rect x="21.031" y="1" width="8" height="8" style="fill:#73768c;"/><rect x="21.031" y="11" width="8" height="8" style="fill:#ccc;"/><rect x="21.031" y="21" width="8" height="8" style="fill:#66997e;"/><rect x="21.031" y="31" width="8" height="8" style="fill:#ccc;"/><rect x="31" y="1" width="8" height="8" style="fill:#ccc;"/><rect x="31" y="11" width="8" height="8" style="fill:#a67459;"/><rect x="31" y="21" width="8" height="8" style="fill:#ccc;"/><rect x="31" y="31" width="8" height="8" style="fill:#ccc;"/></svg>