<?xml version="1.0" encoding="UTF-8" standalone="no"?><!DOCTYPE svg PUBLIC "-//W3C//DTD SVG 1.1//EN" "http://www.w3.org/Graphics/SVG/1.1/DTD/svg11.dtd"><svg width="100%" height="100%" viewBox="0 0 32 32" version="1.1" xmlns="http://www.w3.org/2000/svg" xmlns:xlink="http://www.w3.org/1999/xlink" xml:space="preserve" xmlns:serif="http://www.serif.com/" style="fill-rule:evenodd;clip-rule:evenodd;stroke-linejoin:round;stroke-miterlimit:1.5;"><rect id="colour-picker" x="0" y="0" width="32" height="32" style="fill:none;"/><g><path d="M5.12,23.181l-1.354,1.354c-1.021,1.021 -1.021,2.678 0,3.699c1.021,1.021 2.678,1.021 3.699,-0c0,-0 1.354,-1.354 1.354,-1.354c1.001,0.024 2.01,-0.345 2.774,-1.109c-0,0 15.811,-15.811 15.811,-15.811c1.481,-1.481 1.481,-3.884 0,-5.364c-1.48,-1.481 -3.883,-1.481 -5.364,-0c0,-0 -15.811,15.811 -15.811,15.811c-0.764,0.764 -1.133,1.773 -1.109,2.774Zm2.165,0.664l-2.105,2.104c-0.24,0.24 -0.24,0.63 0,0.871c0.241,0.24 0.631,0.24 0.871,-0l2.104,-2.105c0.664,0.308 1.477,0.189 2.024,-0.358l15.811,-15.812c0.7,-0.699 0.7,-1.835 0,-2.535c-0.7,-0.7 -1.836,-0.7 -2.535,-0l-15.812,15.811c-0.547,0.547 -0.666,1.36 -0.358,2.024Z" style="fill:#262626;"/><path d="M23.209,11.678l0.734,0.734c0.721,0.721 0.814,1.797 0.209,2.403c-0.606,0.605 -1.683,0.512 -2.403,-0.209l-4.355,-4.355c-0.721,-0.72 -0.814,-1.797 -0.209,-2.403c0.606,-0.605 1.682,-0.512 2.403,0.209l0.734,0.734c-0,-0 1.891,-4.23 2.654,-4.992c1.211,-1.211 3.365,-1.024 4.807,0.418c1.442,1.442 1.629,3.596 0.418,4.807c-0.762,0.763 -4.992,2.654 -4.992,2.654Z" style="fill:#262626;stroke:#262626;stroke-width:2px;"/></g></svg>