<?xml version="1.0" encoding="UTF-8" standalone="no"?><!DOCTYPE svg PUBLIC "-//W3C//DTD SVG 1.1//EN" "http://www.w3.org/Graphics/SVG/1.1/DTD/svg11.dtd"><svg width="100%" height="100%" viewBox="0 0 32 32" version="1.1" xmlns="http://www.w3.org/2000/svg" xmlns:xlink="http://www.w3.org/1999/xlink" xml:space="preserve" xmlns:serif="http://www.serif.com/" style="fill-rule:evenodd;clip-rule:evenodd;stroke-linecap:round;stroke-linejoin:round;stroke-miterlimit:1.5;"><rect id="grid-light" x="0" y="0" width="32" height="32" style="fill:none;"/><path d="M15.52,18.208c-0,-0.954 -0.774,-1.728 -1.728,-1.728l-8.064,-0c-0.954,-0 -1.728,0.774 -1.728,1.728l-0,8.064c-0,0.954 0.774,1.728 1.728,1.728l8.064,-0c0.954,-0 1.728,-0.774 1.728,-1.728l-0,-8.064Zm-9.52,0.272l0,7.52l7.52,-0l-0,-7.52l-7.52,-0Z" style="fill:#262626;"/><path d="M28,5.728c0,-0.954 -0.774,-1.728 -1.728,-1.728l-8.064,0c-0.954,0 -1.728,0.774 -1.728,1.728l-0,8.064c-0,0.954 0.774,1.728 1.728,1.728l8.064,-0c0.954,-0 1.728,-0.774 1.728,-1.728l0,-8.064Zm-9.52,0.272l-0,7.52l7.52,-0l0,-7.52l-7.52,0Z" style="fill:#262626;"/><path d="M13.005,4l-0,1.92l0.595,0l-0,7.68l-7.68,-0l-0,-0.96l-1.92,-0l0,1.152c0,0.954 0.774,1.728 1.728,1.728l8.064,-0c0.954,-0 1.728,-0.774 1.728,-1.728l0,-8.064c0,-0.954 -0.774,-1.728 -1.728,-1.728l-0.787,-0Z" style="fill:#262626;"/><path d="M13.005,4l-0,1.92l0.595,0l-0,7.68l-7.68,-0l-0,-0.96l-1.92,-0l0,1.152c0,0.954 0.774,1.728 1.728,1.728l8.064,-0c0.954,-0 1.728,-0.774 1.728,-1.728l0,-8.064c0,-0.954 -0.774,-1.728 -1.728,-1.728l-0.787,-0Z" style="fill:#262626;"/><path d="M13.005,4l-0,1.92l0.595,0l-0,7.68l-7.68,-0l-0,-0.96l-1.92,-0l0,1.152c0,0.954 0.774,1.728 1.728,1.728l8.064,-0c0.954,-0 1.728,-0.774 1.728,-1.728l0,-8.064c0,-0.954 -0.774,-1.728 -1.728,-1.728l-0.787,-0Z" style="fill:#262626;"/><path d="M6.545,1.5l0,1.141" style="fill:none;stroke:#262626;stroke-width:1.5px;"/><path d="M6.545,10.449l0,1.141" style="fill:none;stroke:#262626;stroke-width:1.5px;"/><path d="M1.5,6.545l1.141,0" style="fill:none;stroke:#262626;stroke-width:1.5px;"/><path d="M10.449,6.545l1.141,0" style="fill:none;stroke:#262626;stroke-width:1.5px;"/><path d="M2.978,2.978l0.719,0.719" style="fill:none;stroke:#262626;stroke-width:1.5px;"/><path d="M9.393,9.393l0.72,0.72" style="fill:none;stroke:#262626;stroke-width:1.5px;"/><path d="M2.978,10.113l0.719,-0.72" style="fill:none;stroke:#262626;stroke-width:1.5px;"/><path d="M9.393,3.697l0.72,-0.719" style="fill:none;stroke:#262626;stroke-width:1.5px;"/><path d="M6.545,3.545c1.656,0 3,1.344 3,3c0,1.656 -1.344,3 -3,3c-1.656,0 -3,-1.344 -3,-3c0,-1.656 1.344,-3 3,-3Zm0,1.5c0.828,0 1.5,0.672 1.5,1.5c0,0.828 -0.672,1.5 -1.5,1.5c-0.828,0 -1.5,-0.672 -1.5,-1.5c0,-0.828 0.672,-1.5 1.5,-1.5Z" style="fill:#262626;"/><path d="M28,18.208c0,-0.954 -0.774,-1.728 -1.728,-1.728l-8.064,-0c-0.954,-0 -1.728,0.774 -1.728,1.728l-0,8.064c-0,0.954 0.774,1.728 1.728,1.728l8.064,-0c0.954,-0 1.728,-0.774 1.728,-1.728l0,-8.064Zm-9.52,0.272l-0,7.52l7.52,-0l0,-7.52l-7.52,-0Z" style="fill:#262626;"/></svg>