<?xml version="1.0" encoding="UTF-8" standalone="no"?><!DOCTYPE svg PUBLIC "-//W3C//DTD SVG 1.1//EN" "http://www.w3.org/Graphics/SVG/1.1/DTD/svg11.dtd"><svg width="100%" height="100%" viewBox="0 0 32 32" version="1.1" xmlns="http://www.w3.org/2000/svg" xmlns:xlink="http://www.w3.org/1999/xlink" xml:space="preserve" xmlns:serif="http://www.serif.com/" style="fill-rule:evenodd;clip-rule:evenodd;stroke-linecap:round;stroke-miterlimit:1.5;"><rect id="settings" x="0" y="0" width="32" height="32" style="fill:none;"/><path d="M12.881,1.328c-1.368,0.291 -2.688,0.771 -3.923,1.428c0.313,1.137 0.354,2.283 0.123,3.44c-0.547,0.385 -1.06,0.816 -1.535,1.287c-1.179,0.027 -2.301,-0.212 -3.366,-0.718c-0.861,1.102 -1.564,2.319 -2.088,3.616c0.971,0.67 1.739,1.522 2.305,2.556c-0.17,0.647 -0.287,1.307 -0.347,1.973c-0.886,0.778 -1.9,1.316 -3.041,1.613c0.049,1.398 0.293,2.782 0.725,4.112c1.174,-0.111 2.31,0.048 3.409,0.477c0.285,0.605 0.62,1.185 1.002,1.735c-0.179,1.165 -0.609,2.229 -1.292,3.19c0.936,1.039 2.012,1.943 3.198,2.684c0.828,-0.84 1.801,-1.449 2.918,-1.827c0.607,0.281 1.237,0.51 1.882,0.686c0.613,1.007 0.967,2.099 1.061,3.274c1.385,0.195 2.791,0.195 4.176,0c0.094,-1.175 0.448,-2.267 1.061,-3.274c0.645,-0.176 1.275,-0.405 1.882,-0.686c1.117,0.378 2.09,0.987 2.918,1.827c1.186,-0.741 2.262,-1.645 3.198,-2.684c-0.683,-0.961 -1.113,-2.025 -1.292,-3.19c0.382,-0.55 0.717,-1.13 1.002,-1.735c1.099,-0.429 2.235,-0.588 3.409,-0.477c0.432,-1.33 0.676,-2.714 0.725,-4.112c-1.141,-0.297 -2.155,-0.835 -3.041,-1.613c-0.06,-0.666 -0.177,-1.326 -0.347,-1.973c0.566,-1.034 1.334,-1.886 2.305,-2.556c-0.524,-1.297 -1.227,-2.514 -2.088,-3.616c-1.065,0.506 -2.187,0.745 -3.366,0.718c-0.475,-0.471 -0.988,-0.902 -1.535,-1.287c-0.231,-1.157 -0.19,-2.303 0.123,-3.44c-1.235,-0.657 -2.555,-1.137 -3.923,-1.428c-0.491,1.072 -1.197,1.977 -2.117,2.714c-0.667,-0.056 -1.337,-0.056 -2.004,-0c-0.92,-0.737 -1.626,-1.642 -2.117,-2.714Zm0.554,7.624c3.89,-1.415 8.197,0.593 9.613,4.483c1.415,3.89 -0.593,8.197 -4.483,9.613c-3.89,1.415 -8.197,-0.593 -9.613,-4.483c-1.415,-3.89 0.593,-8.197 4.483,-9.613Z" style="fill:none;stroke:#262626;stroke-width:1px;"/></svg>