<?xml version="1.0" encoding="UTF-8" standalone="no"?><!DOCTYPE svg PUBLIC "-//W3C//DTD SVG 1.1//EN" "http://www.w3.org/Graphics/SVG/1.1/DTD/svg11.dtd"><svg width="100%" height="100%" viewBox="0 0 32 32" version="1.1" xmlns="http://www.w3.org/2000/svg" xmlns:xlink="http://www.w3.org/1999/xlink" xml:space="preserve" xmlns:serif="http://www.serif.com/" style="fill-rule:evenodd;clip-rule:evenodd;stroke-linejoin:round;stroke-miterlimit:2;"><rect id="undo" x="0" y="0" width="32" height="32" style="fill:none;"/><g><path d="M10.835,13.125l-7.5,-3.75l7.5,-3.75l-0,7.5Z" style="fill:#262626;"/><path d="M15.665,26.375l4,0c4.968,0 9,-4.033 9,-9c0,-4.967 -4.032,-9 -9,-9l-10.33,-0c-0.552,-0 -1,0.448 -1,1c-0,0.552 0.448,1 1,1l10.33,0c3.864,0 7,3.137 7,7c0,3.863 -3.136,7 -7,7c0,0 -4,-0 -4,-0c-0.552,0 -1,0.448 -1,1c0,0.552 0.448,1 1,1Z" style="fill:#262626;"/></g></svg>