<?xml version="1.0" encoding="UTF-8" standalone="no"?><!DOCTYPE svg PUBLIC "-//W3C//DTD SVG 1.1//EN" "http://www.w3.org/Graphics/SVG/1.1/DTD/svg11.dtd"><svg width="100%" height="100%" viewBox="0 0 32 32" version="1.1" xmlns="http://www.w3.org/2000/svg" xmlns:xlink="http://www.w3.org/1999/xlink" xml:space="preserve" xmlns:serif="http://www.serif.com/" style="fill-rule:evenodd;clip-rule:evenodd;stroke-linejoin:round;stroke-miterlimit:1.5;"><rect id="flood-fill" x="0" y="0" width="32" height="32" style="fill:none;"/><path d="M16.988,6.726l5.256,5.257l0.776,-0c0,-4.694 0.865,-10.3 -2.507,-10.3c-2.201,0 -3.014,2.665 -3.525,5.043Z" style="fill:none;stroke:#262626;stroke-width:2px;"/><path d="M6.341,14.465l21.489,3.07l-9.21,9.21l-12.279,-12.28Z" style="fill:#262626;stroke:#262626;stroke-width:2px;"/><path d="M5.255,18.807c0,-0 -1.085,2.279 -1.085,3.256c0,0.599 0.486,1.085 1.085,1.085c0.599,-0 1.086,-0.486 1.086,-1.085c-0,-0.977 -1.086,-3.256 -1.086,-3.256Z" style="fill:#262626;stroke:#262626;stroke-width:2px;"/><path d="M15.55,5.255l-10.295,10.295l1.086,-1.085l12.279,12.28l9.21,-9.21l-12.28,-12.28Z" style="fill:none;stroke:#262626;stroke-width:2px;"/></svg>