<?xml version="1.0" encoding="UTF-8" standalone="no"?><!DOCTYPE svg PUBLIC "-//W3C//DTD SVG 1.1//EN" "http://www.w3.org/Graphics/SVG/1.1/DTD/svg11.dtd"><svg width="100%" height="100%" viewBox="0 0 32 32" version="1.1" xmlns="http://www.w3.org/2000/svg" xmlns:xlink="http://www.w3.org/1999/xlink" xml:space="preserve" xmlns:serif="http://www.serif.com/" style="fill-rule:evenodd;clip-rule:evenodd;stroke-linejoin:round;stroke-miterlimit:1.5;"><rect id="brush" x="0" y="0" width="32" height="32" style="fill:none;"/><g><g><path d="M25.234,13.201l-6.435,-6.435c-2.246,-0.304 -4.604,0.407 -6.33,2.132c-7.42,7.42 -2.344,11.879 -9.134,14.956c5.919,0.407 12.347,3.097 19.767,-4.323c1.725,-1.726 2.436,-4.084 2.132,-6.33Z" style="fill:none;stroke:#262626;stroke-width:2px;"/><path d="M29.691,9.172l-6.863,-6.863l-4.243,4.243l6.863,6.863l4.243,-4.243Z" style="fill:none;stroke:#262626;stroke-width:2px;"/></g></g><path d="M7.689,17.895c-0.603,2.624 -0.339,3.673 -3.036,5.328l0.437,0.791c2.312,0.277 5.552,0.357 8.054,0.27l-5.455,-6.389Z" style="fill:#262626;"/></svg>