<?xml version="1.0" encoding="UTF-8" standalone="no"?><!DOCTYPE svg PUBLIC "-//W3C//DTD SVG 1.1//EN" "http://www.w3.org/Graphics/SVG/1.1/DTD/svg11.dtd"><svg width="100%" height="100%" viewBox="0 0 32 32" version="1.1" xmlns="http://www.w3.org/2000/svg" xmlns:xlink="http://www.w3.org/1999/xlink" xml:space="preserve" xmlns:serif="http://www.serif.com/" style="fill-rule:evenodd;clip-rule:evenodd;stroke-linejoin:round;stroke-miterlimit:2;"><rect id="darken" x="0" y="0" width="32" height="32" style="fill:none;"/><path d="M24.161,1.703c3.735,2.93 6.136,7.484 6.136,12.594c0,8.831 -7.169,16 -16,16c-5.11,0 -9.664,-2.401 -12.594,-6.136c5.355,0.314 11.292,-1.934 15.908,-6.55c4.616,-4.616 6.864,-10.553 6.55,-15.908Zm1.683,4.68c1.547,2.252 2.453,4.978 2.453,7.914c0,7.727 -6.273,14 -14,14c-2.936,0 -5.662,-0.906 -7.914,-2.453c4.446,-0.824 8.937,-3.113 12.642,-6.819c3.706,-3.705 5.996,-8.197 6.819,-12.641l-0,-0.001Z" style="fill:#262626;"/></svg>