<?xml version="1.0" encoding="UTF-8" standalone="no"?><!DOCTYPE svg PUBLIC "-//W3C//DTD SVG 1.1//EN" "http://www.w3.org/Graphics/SVG/1.1/DTD/svg11.dtd"><svg width="100%" height="100%" viewBox="0 0 32 32" version="1.1" xmlns="http://www.w3.org/2000/svg" xmlns:xlink="http://www.w3.org/1999/xlink" xml:space="preserve" xmlns:serif="http://www.serif.com/" style="fill-rule:evenodd;clip-rule:evenodd;stroke-linecap:round;stroke-linejoin:round;stroke-miterlimit:1.5;"><rect id="lighten" x="0" y="0" width="32" height="32" style="fill:none;"/><path d="M16,2l0,4" style="fill:none;stroke:#262626;stroke-width:2px;"/><path d="M16,26l0,4" style="fill:none;stroke:#262626;stroke-width:2px;"/><path d="M2,16l4,0" style="fill:none;stroke:#262626;stroke-width:2px;"/><path d="M26,16l4,0" style="fill:none;stroke:#262626;stroke-width:2px;"/><path d="M6.101,6.101l2.828,2.828" style="fill:none;stroke:#262626;stroke-width:2px;"/><path d="M23.071,23.071l2.828,2.828" style="fill:none;stroke:#262626;stroke-width:2px;"/><path d="M6.101,25.899l2.828,-2.828" style="fill:none;stroke:#262626;stroke-width:2px;"/><path d="M23.071,8.929l2.828,-2.828" style="fill:none;stroke:#262626;stroke-width:2px;"/><path d="M16,8c4.415,0 8,3.585 8,8c0,4.415 -3.585,8 -8,8c-4.415,0 -8,-3.585 -8,-8c0,-4.415 3.585,-8 8,-8Zm0,2c3.311,0 6,2.689 6,6c0,3.311 -2.689,6 -6,6c-3.311,0 -6,-2.689 -6,-6c0,-3.311 2.689,-6 6,-6Z" style="fill:#262626;"/></svg>