<?xml version="1.0" encoding="UTF-8" standalone="no"?><!DOCTYPE svg PUBLIC "-//W3C//DTD SVG 1.1//EN" "http://www.w3.org/Graphics/SVG/1.1/DTD/svg11.dtd"><svg width="100%" height="100%" viewBox="0 0 32 32" version="1.1" xmlns="http://www.w3.org/2000/svg" xmlns:xlink="http://www.w3.org/1999/xlink" xml:space="preserve" xmlns:serif="http://www.serif.com/" style="fill-rule:evenodd;clip-rule:evenodd;stroke-linecap:round;stroke-linejoin:round;stroke-miterlimit:1.5;"><rect id="canvas-colour" x="0" y="0" width="32" height="32" style="fill:none;"/><g><g><path d="M27.205,6.753l-1.138,-0" style="fill:none;stroke:#262626;stroke-width:2px;"/><path d="M7.849,6.753l-3.416,-0c-0.536,-0 -1.138,0.601 -1.138,1.138l-0,4.555l13.663,5.693l-0,2.277" style="fill:none;stroke:#262626;stroke-width:2px;"/><path d="M26.067,5.045c-0,-0.943 -0.766,-1.708 -1.708,-1.708l-14.802,-0c-0.943,-0 -1.708,0.765 -1.708,1.708l0,3.415c0,0.943 0.765,1.708 1.708,1.708l14.802,0c0.942,0 1.708,-0.765 1.708,-1.708l-0,-3.415Z" style="fill:none;stroke:#262626;stroke-width:2px;"/><path d="M15.823,20.416c-0.629,-0 -1.139,0.51 -1.139,1.138l0,6.832c0,0.628 0.51,1.139 1.139,1.139l2.277,-0c0.629,-0 1.139,-0.511 1.139,-1.139l-0,-6.832c-0,-0.628 -0.51,-1.138 -1.139,-1.138l-2.277,-0Z" style="fill:none;stroke:#262626;stroke-width:2px;"/><path d="M16.958,29.525l-0,1.138" style="fill:none;stroke:#262626;stroke-width:2px;"/><path d="M24.163,10.168l-10.779,0l0,1.118c0,0.992 0.805,1.797 1.797,1.797c0.991,-0 1.796,-0.805 1.796,-1.797l0,1.317c0,0.991 0.805,1.796 1.797,1.796c0.991,0 1.796,-0.805 1.796,-1.796l0,3.95c0,0.992 0.805,1.797 1.797,1.797c0.991,-0 1.796,-0.805 1.796,-1.797l0,-6.385Zm-10.779,0l-3.593,0l0,1.118c0,0.992 0.805,1.797 1.797,1.797c0.991,-0 1.796,-0.805 1.796,-1.797l0,-1.118Zm-3.593,-6.831l14.372,-0" style="fill:none;stroke:#262626;stroke-width:2px;"/></g></g></svg>