<?xml version="1.0" encoding="UTF-8" standalone="no"?><!DOCTYPE svg PUBLIC "-//W3C//DTD SVG 1.1//EN" "http://www.w3.org/Graphics/SVG/1.1/DTD/svg11.dtd"><svg width="100%" height="100%" viewBox="0 0 2152 216" version="1.1" xmlns="http://www.w3.org/2000/svg" xmlns:xlink="http://www.w3.org/1999/xlink" xml:space="preserve" xmlns:serif="http://www.serif.com/" style="fill-rule:evenodd;clip-rule:evenodd;stroke-linejoin:round;stroke-miterlimit:2;"><rect id="heading" x="0" y="0" width="2152" height="216" style="fill:none;"/><clipPath id="_clip1"><rect x="0" y="0" width="2152" height="216"/></clipPath><g clip-path="url(#_clip1)"><g><path d="M40,8c0,-4.415 -3.585,-8 -8,-8l-24,0c-4.415,0 -8,3.585 -8,8l0,24c0,4.415 3.585,8 8,8l24,0c4.415,0 8,-3.585 8,-8l0,-24Z" style="fill:#bfbfbf;"/><path d="M216,8c0,-4.415 -3.585,-8 -8,-8l-24,0c-4.415,0 -8,3.585 -8,8l0,24c0,4.415 3.585,8 8,8l24,0c4.415,0 8,-3.585 8,-8l0,-24Z" style="fill:#bfbfbf;"/><path d="M392,8c-0,-4.415 -3.585,-8 -8,-8l-24,0c-4.415,0 -8,3.585 -8,8l-0,24c-0,4.415 3.585,8 8,8l24,0c4.415,0 8,-3.585 8,-8l-0,-24Z" style="fill:#bfbfbf;"/><path d="M1184,8c0,-4.415 -3.585,-8 -8,-8l-24,0c-4.415,0 -8,3.585 -8,8l0,24c0,4.415 3.585,8 8,8l24,0c4.415,0 8,-3.585 8,-8l0,-24Z" style="fill:#bfbfbf;"/><path d="M1360,8c0,-4.415 -3.585,-8 -8,-8l-24,0c-4.415,0 -8,3.585 -8,8l0,24c0,4.415 3.585,8 8,8l24,0c4.415,0 8,-3.585 8,-8l0,-24Z" style="fill:#bfbfbf;"/><path d="M1536,8c0,-4.415 -3.585,-8 -8,-8l-24,0c-4.415,0 -8,3.585 -8,8l0,24c0,4.415 3.585,8 8,8l24,0c4.415,0 8,-3.585 8,-8l0,-24Z" style="fill:#bfbfbf;"/><path d="M1712,8c0,-4.415 -3.585,-8 -8,-8l-24,0c-4.415,0 -8,3.585 -8,8l0,24c0,4.415 3.585,8 8,8l24,0c4.415,0 8,-3.585 8,-8l0,-24Z" style="fill:#bfbfbf;"/><path d="M1888,8c0,-4.415 -3.585,-8 -8,-8l-24,0c-4.415,0 -8,3.585 -8,8l0,24c0,4.415 3.585,8 8,8l24,0c4.415,0 8,-3.585 8,-8l0,-24Z" style="fill:#bfbfbf;"/><path d="M2064,8c0,-4.415 -3.585,-8 -8,-8l-24,0c-4.415,0 -8,3.585 -8,8l0,24c0,4.415 3.585,8 8,8l24,0c4.415,0 8,-3.585 8,-8l0,-24Z" style="fill:#bfbfbf;"/><path d="M568,8c-0,-4.415 -3.585,-8 -8,-8l-24,0c-4.415,0 -8,3.585 -8,8l-0,24c-0,4.415 3.585,8 8,8l24,0c4.415,0 8,-3.585 8,-8l-0,-24Z" style="fill:#bfbfbf;"/><path d="M744,8c0,-4.415 -3.585,-8 -8,-8l-24,0c-4.415,0 -8,3.585 -8,8l0,24c0,4.415 3.585,8 8,8l24,0c4.415,0 8,-3.585 8,-8l0,-24Z" style="fill:#bfbfbf;"/><path d="M1008,8c0,-4.415 -3.585,-8 -8,-8l-24,0c-4.415,0 -8,3.585 -8,8l0,24c0,4.415 3.585,8 8,8l24,0c4.415,0 8,-3.585 8,-8l0,-24Z" style="fill:#bfbfbf;"/><path d="M128,8c-0,-4.415 -3.585,-8 -8,-8l-24,0c-4.415,0 -8,3.585 -8,8l-0,24c-0,4.415 3.585,8 8,8l24,0c4.415,0 8,-3.585 8,-8l-0,-24Z" style="fill:#bfbfbf;"/><path d="M304,8c-0,-4.415 -3.585,-8 -8,-8l-24,0c-4.415,0 -8,3.585 -8,8l-0,24c-0,4.415 3.585,8 8,8l24,0c4.415,0 8,-3.585 8,-8l-0,-24Z" style="fill:#bfbfbf;"/><path d="M480,8c-0,-4.415 -3.585,-8 -8,-8l-24,0c-4.415,0 -8,3.585 -8,8l-0,24c-0,4.415 3.585,8 8,8l24,0c4.415,0 8,-3.585 8,-8l-0,-24Z" style="fill:#bfbfbf;"/><path d="M1272,8c0,-4.415 -3.585,-8 -8,-8l-24,0c-4.415,0 -8,3.585 -8,8l0,24c0,4.415 3.585,8 8,8l24,0c4.415,0 8,-3.585 8,-8l0,-24Z" style="fill:#bfbfbf;"/><path d="M1448,8c0,-4.415 -3.585,-8 -8,-8l-24,0c-4.415,0 -8,3.585 -8,8l0,24c0,4.415 3.585,8 8,8l24,0c4.415,0 8,-3.585 8,-8l0,-24Z" style="fill:#bfbfbf;"/><path d="M1624,8c0,-4.415 -3.585,-8 -8,-8l-24,0c-4.415,0 -8,3.585 -8,8l0,24c0,4.415 3.585,8 8,8l24,0c4.415,0 8,-3.585 8,-8l0,-24Z" style="fill:#bfbfbf;"/><path d="M1800,8c0,-4.415 -3.585,-8 -8,-8l-24,0c-4.415,0 -8,3.585 -8,8l0,24c0,4.415 3.585,8 8,8l24,0c4.415,0 8,-3.585 8,-8l0,-24Z" style="fill:#bfbfbf;"/><path d="M1976,8c0,-4.415 -3.585,-8 -8,-8l-24,0c-4.415,0 -8,3.585 -8,8l0,24c0,4.415 3.585,8 8,8l24,0c4.415,0 8,-3.585 8,-8l0,-24Z" style="fill:#bfbfbf;"/><path d="M2152,8c0,-4.415 -3.585,-8 -8,-8l-24,0c-4.415,0 -8,3.585 -8,8l0,24c0,4.415 3.585,8 8,8l24,0c4.415,0 8,-3.585 8,-8l0,-24Z" style="fill:#bfbfbf;"/><path d="M656,8c0,-4.415 -3.585,-8 -8,-8l-24,0c-4.415,0 -8,3.585 -8,8l0,24c0,4.415 3.585,8 8,8l24,0c4.415,0 8,-3.585 8,-8l0,-24Z" style="fill:#bfbfbf;"/><path d="M1096,8c0,-4.415 -3.585,-8 -8,-8l-24,0c-4.415,0 -8,3.585 -8,8l0,24c0,4.415 3.585,8 8,8l24,0c4.415,0 8,-3.585 8,-8l0,-24Z" style="fill:#bfbfbf;"/><path d="M84,8c0,-4.415 -3.585,-8 -8,-8l-24,0c-4.415,0 -8,3.585 -8,8l0,24c0,4.415 3.585,8 8,8l24,0c4.415,0 8,-3.585 8,-8l0,-24Z" style="fill:#bfbfbf;"/><path d="M260,8c-0,-4.415 -3.585,-8 -8,-8l-24,0c-4.415,0 -8,3.585 -8,8l-0,24c-0,4.415 3.585,8 8,8l24,0c4.415,0 8,-3.585 8,-8l-0,-24Z" style="fill:#bfbfbf;"/><path d="M1228,8c0,-4.415 -3.585,-8 -8,-8l-24,0c-4.415,0 -8,3.585 -8,8l0,24c0,4.415 3.585,8 8,8l24,0c4.415,0 8,-3.585 8,-8l0,-24Z" style="fill:#bfbfbf;"/><path d="M1404,8c0,-4.415 -3.585,-8 -8,-8l-24,0c-4.415,0 -8,3.585 -8,8l0,24c0,4.415 3.585,8 8,8l24,0c4.415,0 8,-3.585 8,-8l0,-24Z" style="fill:#bfbfbf;"/><path d="M1580,8c0,-4.415 -3.585,-8 -8,-8l-24,0c-4.415,0 -8,3.585 -8,8l0,24c0,4.415 3.585,8 8,8l24,0c4.415,0 8,-3.585 8,-8l0,-24Z" style="fill:#bfbfbf;"/><path d="M1756,8c0,-4.415 -3.585,-8 -8,-8l-24,0c-4.415,0 -8,3.585 -8,8l0,24c0,4.415 3.585,8 8,8l24,0c4.415,0 8,-3.585 8,-8l0,-24Z" style="fill:#bfbfbf;"/><path d="M1932,8c0,-4.415 -3.585,-8 -8,-8l-24,0c-4.415,0 -8,3.585 -8,8l0,24c0,4.415 3.585,8 8,8l24,0c4.415,0 8,-3.585 8,-8l0,-24Z" style="fill:#bfbfbf;"/><path d="M2108,8c0,-4.415 -3.585,-8 -8,-8l-24,0c-4.415,0 -8,3.585 -8,8l0,24c0,4.415 3.585,8 8,8l24,0c4.415,0 8,-3.585 8,-8l0,-24Z" style="fill:#bfbfbf;"/><path d="M612,8c0,-4.415 -3.585,-8 -8,-8l-24,0c-4.415,0 -8,3.585 -8,8l0,24c0,4.415 3.585,8 8,8l24,0c4.415,0 8,-3.585 8,-8l0,-24Z" style="fill:#bfbfbf;"/><path d="M1052,8c0,-4.415 -3.585,-8 -8,-8l-24,0c-4.415,0 -8,3.585 -8,8l0,24c0,4.415 3.585,8 8,8l24,0c4.415,0 8,-3.585 8,-8l0,-24Z" style="fill:#bfbfbf;"/><path d="M260,52c-0,-4.415 -3.585,-8 -8,-8l-24,0c-4.415,0 -8,3.585 -8,8l-0,24c-0,4.415 3.585,8 8,8l24,0c4.415,0 8,-3.585 8,-8l-0,-24Z" style="fill:#bfbfbf;"/><path d="M1404,52c0,-4.415 -3.585,-8 -8,-8l-24,0c-4.415,0 -8,3.585 -8,8l0,24c0,4.415 3.585,8 8,8l24,0c4.415,0 8,-3.585 8,-8l0,-24Z" style="fill:#bfbfbf;"/><path d="M1756,52c0,-4.415 -3.585,-8 -8,-8l-24,0c-4.415,0 -8,3.585 -8,8l0,24c0,4.415 3.585,8 8,8l24,0c4.415,0 8,-3.585 8,-8l0,-24Z" style="fill:#bfbfbf;"/><path d="M40,52c0,-4.415 -3.585,-8 -8,-8l-24,0c-4.415,0 -8,3.585 -8,8l0,24c0,4.415 3.585,8 8,8l24,0c4.415,0 8,-3.585 8,-8l0,-24Z" style="fill:#bfbfbf;"/><path d="M392,52c-0,-4.415 -3.585,-8 -8,-8l-24,0c-4.415,0 -8,3.585 -8,8l-0,24c-0,4.415 3.585,8 8,8l24,0c4.415,0 8,-3.585 8,-8l-0,-24Z" style="fill:#bfbfbf;"/><path d="M1184,52c0,-4.415 -3.585,-8 -8,-8l-24,0c-4.415,0 -8,3.585 -8,8l0,24c0,4.415 3.585,8 8,8l24,0c4.415,0 8,-3.585 8,-8l0,-24Z" style="fill:#bfbfbf;"/><path d="M1536,52c0,-4.415 -3.585,-8 -8,-8l-24,0c-4.415,0 -8,3.585 -8,8l0,24c0,4.415 3.585,8 8,8l24,0c4.415,0 8,-3.585 8,-8l0,-24Z" style="fill:#bfbfbf;"/><path d="M1888,52c0,-4.415 -3.585,-8 -8,-8l-24,0c-4.415,0 -8,3.585 -8,8l0,24c0,4.415 3.585,8 8,8l24,0c4.415,0 8,-3.585 8,-8l0,-24Z" style="fill:#bfbfbf;"/><path d="M2064,52c0,-4.415 -3.585,-8 -8,-8l-24,0c-4.415,0 -8,3.585 -8,8l0,24c0,4.415 3.585,8 8,8l24,0c4.415,0 8,-3.585 8,-8l0,-24Z" style="fill:#bfbfbf;"/><path d="M568,52c-0,-4.415 -3.585,-8 -8,-8l-24,0c-4.415,0 -8,3.585 -8,8l-0,24c-0,4.415 3.585,8 8,8l24,0c4.415,0 8,-3.585 8,-8l-0,-24Z" style="fill:#bfbfbf;"/><path d="M744,52c0,-4.415 -3.585,-8 -8,-8l-24,0c-4.415,0 -8,3.585 -8,8l0,24c0,4.415 3.585,8 8,8l24,0c4.415,0 8,-3.585 8,-8l0,-24Z" style="fill:#bfbfbf;"/><path d="M1008,52c0,-4.415 -3.585,-8 -8,-8l-24,0c-4.415,0 -8,3.585 -8,8l0,24c0,4.415 3.585,8 8,8l24,0c4.415,0 8,-3.585 8,-8l0,-24Z" style="fill:#bfbfbf;"/><path d="M128,52c-0,-4.415 -3.585,-8 -8,-8l-24,0c-4.415,0 -8,3.585 -8,8l-0,24c-0,4.415 3.585,8 8,8l24,0c4.415,0 8,-3.585 8,-8l-0,-24Z" style="fill:#bfbfbf;"/><path d="M480,52c-0,-4.415 -3.585,-8 -8,-8l-24,0c-4.415,0 -8,3.585 -8,8l-0,24c-0,4.415 3.585,8 8,8l24,0c4.415,0 8,-3.585 8,-8l-0,-24Z" style="fill:#bfbfbf;"/><path d="M1272,52c0,-4.415 -3.585,-8 -8,-8l-24,0c-4.415,0 -8,3.585 -8,8l0,24c0,4.415 3.585,8 8,8l24,0c4.415,0 8,-3.585 8,-8l0,-24Z" style="fill:#bfbfbf;"/><path d="M1624,52c0,-4.415 -3.585,-8 -8,-8l-24,0c-4.415,0 -8,3.585 -8,8l0,24c0,4.415 3.585,8 8,8l24,0c4.415,0 8,-3.585 8,-8l0,-24Z" style="fill:#bfbfbf;"/><path d="M2152,52c0,-4.415 -3.585,-8 -8,-8l-24,0c-4.415,0 -8,3.585 -8,8l0,24c0,4.415 3.585,8 8,8l24,0c4.415,0 8,-3.585 8,-8l0,-24Z" style="fill:#bfbfbf;"/><path d="M1096,52c0,-4.415 -3.585,-8 -8,-8l-24,0c-4.415,0 -8,3.585 -8,8l0,24c0,4.415 3.585,8 8,8l24,0c4.415,0 8,-3.585 8,-8l0,-24Z" style="fill:#bfbfbf;"/><path d="M40,96c0,-4.415 -3.585,-8 -8,-8l-24,-0c-4.415,-0 -8,3.585 -8,8l0,24c0,4.415 3.585,8 8,8l24,-0c4.415,-0 8,-3.585 8,-8l0,-24Z" style="fill:#bfbfbf;"/><path d="M1184,96c0,-4.415 -3.585,-8 -8,-8l-24,-0c-4.415,-0 -8,3.585 -8,8l0,24c0,4.415 3.585,8 8,8l24,-0c4.415,-0 8,-3.585 8,-8l0,-24Z" style="fill:#bfbfbf;"/><path d="M1536,96c0,-4.415 -3.585,-8 -8,-8l-24,-0c-4.415,-0 -8,3.585 -8,8l0,24c0,4.415 3.585,8 8,8l24,-0c4.415,-0 8,-3.585 8,-8l0,-24Z" style="fill:#bfbfbf;"/><path d="M1888,96c0,-4.415 -3.585,-8 -8,-8l-24,-0c-4.415,-0 -8,3.585 -8,8l0,24c0,4.415 3.585,8 8,8l24,-0c4.415,-0 8,-3.585 8,-8l0,-24Z" style="fill:#bfbfbf;"/><path d="M2064,96c0,-4.415 -3.585,-8 -8,-8l-24,-0c-4.415,-0 -8,3.585 -8,8l0,24c0,4.415 3.585,8 8,8l24,-0c4.415,-0 8,-3.585 8,-8l0,-24Z" style="fill:#bfbfbf;"/><path d="M568,96c-0,-4.415 -3.585,-8 -8,-8l-24,-0c-4.415,-0 -8,3.585 -8,8l-0,24c-0,4.415 3.585,8 8,8l24,-0c4.415,-0 8,-3.585 8,-8l-0,-24Z" style="fill:#bfbfbf;"/><path d="M744,96c0,-4.415 -3.585,-8 -8,-8l-24,-0c-4.415,-0 -8,3.585 -8,8l0,24c0,4.415 3.585,8 8,8l24,-0c4.415,-0 8,-3.585 8,-8l0,-24Z" style="fill:#bfbfbf;"/><path d="M1008,96c0,-4.415 -3.585,-8 -8,-8l-24,-0c-4.415,-0 -8,3.585 -8,8l0,24c0,4.415 3.585,8 8,8l24,-0c4.415,-0 8,-3.585 8,-8l0,-24Z" style="fill:#bfbfbf;"/><path d="M128,96c-0,-4.415 -3.585,-8 -8,-8l-24,-0c-4.415,-0 -8,3.585 -8,8l-0,24c-0,4.415 3.585,8 8,8l24,-0c4.415,-0 8,-3.585 8,-8l-0,-24Z" style="fill:#bfbfbf;"/><path d="M1272,96c0,-4.415 -3.585,-8 -8,-8l-24,-0c-4.415,-0 -8,3.585 -8,8l0,24c0,4.415 3.585,8 8,8l24,-0c4.415,-0 8,-3.585 8,-8l0,-24Z" style="fill:#bfbfbf;"/><path d="M1624,96c0,-4.415 -3.585,-8 -8,-8l-24,-0c-4.415,-0 -8,3.585 -8,8l0,24c0,4.415 3.585,8 8,8l24,-0c4.415,-0 8,-3.585 8,-8l0,-24Z" style="fill:#bfbfbf;"/><path d="M1096,96c0,-4.415 -3.585,-8 -8,-8l-24,-0c-4.415,-0 -8,3.585 -8,8l0,24c0,4.415 3.585,8 8,8l24,-0c4.415,-0 8,-3.585 8,-8l0,-24Z" style="fill:#bfbfbf;"/><path d="M40,140c0,-4.415 -3.585,-8 -8,-8l-24,0c-4.415,0 -8,3.585 -8,8l0,24c0,4.415 3.585,8 8,8l24,0c4.415,0 8,-3.585 8,-8l0,-24Z" style="fill:#bfbfbf;"/><path d="M392,140c-0,-4.415 -3.585,-8 -8,-8l-24,0c-4.415,0 -8,3.585 -8,8l-0,24c-0,4.415 3.585,8 8,8l24,0c4.415,0 8,-3.585 8,-8l-0,-24Z" style="fill:#bfbfbf;"/><path d="M1184,140c0,-4.415 -3.585,-8 -8,-8l-24,0c-4.415,0 -8,3.585 -8,8l0,24c0,4.415 3.585,8 8,8l24,0c4.415,0 8,-3.585 8,-8l0,-24Z" style="fill:#bfbfbf;"/><path d="M1536,140c0,-4.415 -3.585,-8 -8,-8l-24,0c-4.415,0 -8,3.585 -8,8l0,24c0,4.415 3.585,8 8,8l24,0c4.415,0 8,-3.585 8,-8l0,-24Z" style="fill:#bfbfbf;"/><path d="M1888,140c0,-4.415 -3.585,-8 -8,-8l-24,0c-4.415,0 -8,3.585 -8,8l0,24c0,4.415 3.585,8 8,8l24,0c4.415,0 8,-3.585 8,-8l0,-24Z" style="fill:#bfbfbf;"/><path d="M2064,140c0,-4.415 -3.585,-8 -8,-8l-24,0c-4.415,0 -8,3.585 -8,8l0,24c0,4.415 3.585,8 8,8l24,0c4.415,0 8,-3.585 8,-8l0,-24Z" style="fill:#bfbfbf;"/><path d="M568,140c0,-4.415 -3.585,-8 -8,-8l-24,0c-4.415,0 -8,3.585 -8,8l0,24c0,4.415 3.585,8 8,8l24,0c4.415,0 8,-3.585 8,-8l0,-24Z" style="fill:#bfbfbf;"/><path d="M744,140c0,-4.415 -3.585,-8 -8,-8l-24,0c-4.415,0 -8,3.585 -8,8l0,24c0,4.415 3.585,8 8,8l24,0c4.415,0 8,-3.585 8,-8l0,-24Z" style="fill:#bfbfbf;"/><path d="M1008,140c0,-4.415 -3.585,-8 -8,-8l-24,0c-4.415,0 -8,3.585 -8,8l0,24c0,4.415 3.585,8 8,8l24,0c4.415,0 8,-3.585 8,-8l0,-24Z" style="fill:#bfbfbf;"/><path d="M480,140c-0,-4.415 -3.585,-8 -8,-8l-24,0c-4.415,0 -8,3.585 -8,8l-0,24c-0,4.415 3.585,8 8,8l24,0c4.415,0 8,-3.585 8,-8l-0,-24Z" style="fill:#bfbfbf;"/><path d="M1272,140c0,-4.415 -3.585,-8 -8,-8l-24,0c-4.415,0 -8,3.585 -8,8l0,24c0,4.415 3.585,8 8,8l24,0c4.415,0 8,-3.585 8,-8l0,-24Z" style="fill:#bfbfbf;"/><path d="M1624,140c0,-4.415 -3.585,-8 -8,-8l-24,0c-4.415,0 -8,3.585 -8,8l0,24c0,4.415 3.585,8 8,8l24,0c4.415,0 8,-3.585 8,-8l0,-24Z" style="fill:#bfbfbf;"/><path d="M2152,140c0,-4.415 -3.585,-8 -8,-8l-24,0c-4.415,0 -8,3.585 -8,8l0,24c0,4.415 3.585,8 8,8l24,0c4.415,0 8,-3.585 8,-8l0,-24Z" style="fill:#bfbfbf;"/><path d="M84,96c0,-4.415 -3.585,-8 -8,-8l-24,-0c-4.415,-0 -8,3.585 -8,8l0,24c0,4.415 3.585,8 8,8l24,-0c4.415,-0 8,-3.585 8,-8l0,-24Z" style="fill:#bfbfbf;"/><path d="M260,96c-0,-4.415 -3.585,-8 -8,-8l-24,-0c-4.415,-0 -8,3.585 -8,8l-0,24c-0,4.415 3.585,8 8,8l24,-0c4.415,-0 8,-3.585 8,-8l-0,-24Z" style="fill:#bfbfbf;"/><path d="M436,96c-0,-4.415 -3.585,-8 -8,-8l-24,-0c-4.415,-0 -8,3.585 -8,8l-0,24c-0,4.415 3.585,8 8,8l24,-0c4.415,-0 8,-3.585 8,-8l-0,-24Z" style="fill:#bfbfbf;"/><path d="M1228,96c0,-4.415 -3.585,-8 -8,-8l-24,-0c-4.415,-0 -8,3.585 -8,8l0,24c0,4.415 3.585,8 8,8l24,-0c4.415,-0 8,-3.585 8,-8l0,-24Z" style="fill:#bfbfbf;"/><path d="M1404,96c0,-4.415 -3.585,-8 -8,-8l-24,-0c-4.415,-0 -8,3.585 -8,8l0,24c0,4.415 3.585,8 8,8l24,-0c4.415,-0 8,-3.585 8,-8l0,-24Z" style="fill:#bfbfbf;"/><path d="M1756,96c0,-4.415 -3.585,-8 -8,-8l-24,-0c-4.415,-0 -8,3.585 -8,8l0,24c0,4.415 3.585,8 8,8l24,-0c4.415,-0 8,-3.585 8,-8l0,-24Z" style="fill:#bfbfbf;"/><path d="M1932,96c0,-4.415 -3.585,-8 -8,-8l-24,-0c-4.415,-0 -8,3.585 -8,8l0,24c0,4.415 3.585,8 8,8l24,-0c4.415,-0 8,-3.585 8,-8l0,-24Z" style="fill:#bfbfbf;"/><path d="M2108,96c0,-4.415 -3.585,-8 -8,-8l-24,-0c-4.415,-0 -8,3.585 -8,8l0,24c0,4.415 3.585,8 8,8l24,-0c4.415,-0 8,-3.585 8,-8l0,-24Z" style="fill:#bfbfbf;"/><path d="M612,96c0,-4.415 -3.585,-8 -8,-8l-24,-0c-4.415,-0 -8,3.585 -8,8l0,24c0,4.415 3.585,8 8,8l24,-0c4.415,-0 8,-3.585 8,-8l0,-24Z" style="fill:#bfbfbf;"/><path d="M1052,96c0,-4.415 -3.585,-8 -8,-8l-24,-0c-4.415,-0 -8,3.585 -8,8l0,24c0,4.415 3.585,8 8,8l24,-0c4.415,-0 8,-3.585 8,-8l0,-24Z" style="fill:#bfbfbf;"/><path d="M260,140c-0,-4.415 -3.585,-8 -8,-8l-24,0c-4.415,0 -8,3.585 -8,8l-0,24c-0,4.415 3.585,8 8,8l24,0c4.415,0 8,-3.585 8,-8l-0,-24Z" style="fill:#bfbfbf;"/><path d="M1404,140c0,-4.415 -3.585,-8 -8,-8l-24,0c-4.415,0 -8,3.585 -8,8l0,24c0,4.415 3.585,8 8,8l24,0c4.415,0 8,-3.585 8,-8l0,-24Z" style="fill:#bfbfbf;"/><path d="M1756,140c0,-4.415 -3.585,-8 -8,-8l-24,0c-4.415,0 -8,3.585 -8,8l0,24c0,4.415 3.585,8 8,8l24,0c4.415,0 8,-3.585 8,-8l0,-24Z" style="fill:#bfbfbf;"/><path d="M40,184c0,-4.415 -3.585,-8 -8,-8l-24,-0c-4.415,-0 -8,3.585 -8,8l0,24c0,4.415 3.585,8 8,8l24,-0c4.415,-0 8,-3.585 8,-8l0,-24Z" style="fill:#bfbfbf;"/><path d="M216,184c0,-4.415 -3.585,-8 -8,-8l-24,-0c-4.415,-0 -8,3.585 -8,8l0,24c0,4.415 3.585,8 8,8l24,-0c4.415,-0 8,-3.585 8,-8l0,-24Z" style="fill:#bfbfbf;"/><path d="M392,184c-0,-4.415 -3.585,-8 -8,-8l-24,-0c-4.415,-0 -8,3.585 -8,8l-0,24c-0,4.415 3.585,8 8,8l24,-0c4.415,-0 8,-3.585 8,-8l-0,-24Z" style="fill:#bfbfbf;"/><path d="M1184,184c0,-4.415 -3.585,-8 -8,-8l-24,-0c-4.415,-0 -8,3.585 -8,8l0,24c0,4.415 3.585,8 8,8l24,-0c4.415,-0 8,-3.585 8,-8l0,-24Z" style="fill:#bfbfbf;"/><path d="M1360,184c0,-4.415 -3.585,-8 -8,-8l-24,-0c-4.415,-0 -8,3.585 -8,8l0,24c0,4.415 3.585,8 8,8l24,-0c4.415,-0 8,-3.585 8,-8l0,-24Z" style="fill:#bfbfbf;"/><path d="M1536,184c0,-4.415 -3.585,-8 -8,-8l-24,-0c-4.415,-0 -8,3.585 -8,8l0,24c0,4.415 3.585,8 8,8l24,-0c4.415,-0 8,-3.585 8,-8l0,-24Z" style="fill:#bfbfbf;"/><path d="M1888,184c0,-4.415 -3.585,-8 -8,-8l-24,-0c-4.415,-0 -8,3.585 -8,8l0,24c0,4.415 3.585,8 8,8l24,-0c4.415,-0 8,-3.585 8,-8l0,-24Z" style="fill:#bfbfbf;"/><path d="M2064,184c0,-4.415 -3.585,-8 -8,-8l-24,-0c-4.415,-0 -8,3.585 -8,8l0,24c0,4.415 3.585,8 8,8l24,-0c4.415,-0 8,-3.585 8,-8l0,-24Z" style="fill:#bfbfbf;"/><path d="M568,184c-0,-4.415 -3.585,-8 -8,-8l-24,-0c-4.415,-0 -8,3.585 -8,8l-0,24c-0,4.415 3.585,8 8,8l24,-0c4.415,-0 8,-3.585 8,-8l-0,-24Z" style="fill:#bfbfbf;"/><path d="M744,184c0,-4.415 -3.585,-8 -8,-8l-24,-0c-4.415,-0 -8,3.585 -8,8l0,24c0,4.415 3.585,8 8,8l24,-0c4.415,-0 8,-3.585 8,-8l0,-24Z" style="fill:#bfbfbf;"/><path d="M1008,184c0,-4.415 -3.585,-8 -8,-8l-24,-0c-4.415,-0 -8,3.585 -8,8l0,24c0,4.415 3.585,8 8,8l24,-0c4.415,-0 8,-3.585 8,-8l0,-24Z" style="fill:#bfbfbf;"/><path d="M304,184c-0,-4.415 -3.585,-8 -8,-8l-24,-0c-4.415,-0 -8,3.585 -8,8l-0,24c-0,4.415 3.585,8 8,8l24,-0c4.415,-0 8,-3.585 8,-8l-0,-24Z" style="fill:#bfbfbf;"/><path d="M480,184c-0,-4.415 -3.585,-8 -8,-8l-24,-0c-4.415,-0 -8,3.585 -8,8l-0,24c-0,4.415 3.585,8 8,8l24,-0c4.415,-0 8,-3.585 8,-8l-0,-24Z" style="fill:#bfbfbf;"/><path d="M1272,184c0,-4.415 -3.585,-8 -8,-8l-24,-0c-4.415,-0 -8,3.585 -8,8l0,24c0,4.415 3.585,8 8,8l24,-0c4.415,-0 8,-3.585 8,-8l0,-24Z" style="fill:#bfbfbf;"/><path d="M1448,184c0,-4.415 -3.585,-8 -8,-8l-24,-0c-4.415,-0 -8,3.585 -8,8l0,24c0,4.415 3.585,8 8,8l24,-0c4.415,-0 8,-3.585 8,-8l0,-24Z" style="fill:#bfbfbf;"/><path d="M1624,184c0,-4.415 -3.585,-8 -8,-8l-24,-0c-4.415,-0 -8,3.585 -8,8l0,24c0,4.415 3.585,8 8,8l24,-0c4.415,-0 8,-3.585 8,-8l0,-24Z" style="fill:#bfbfbf;"/><path d="M1976,184c0,-4.415 -3.585,-8 -8,-8l-24,-0c-4.415,-0 -8,3.585 -8,8l0,24c0,4.415 3.585,8 8,8l24,-0c4.415,-0 8,-3.585 8,-8l0,-24Z" style="fill:#bfbfbf;"/><path d="M2152,184c0,-4.415 -3.585,-8 -8,-8l-24,-0c-4.415,-0 -8,3.585 -8,8l0,24c0,4.415 3.585,8 8,8l24,-0c4.415,-0 8,-3.585 8,-8l0,-24Z" style="fill:#bfbfbf;"/><path d="M656,184c0,-4.415 -3.585,-8 -8,-8l-24,-0c-4.415,-0 -8,3.585 -8,8l0,24c0,4.415 3.585,8 8,8l24,-0c4.415,-0 8,-3.585 8,-8l0,-24Z" style="fill:#bfbfbf;"/><path d="M832,184c0,-4.415 -3.585,-8 -8,-8l-24,-0c-4.415,-0 -8,3.585 -8,8l0,24c0,4.415 3.585,8 8,8l24,-0c4.415,-0 8,-3.585 8,-8l0,-24Z" style="fill:#bfbfbf;"/><path d="M260,184c-0,-4.415 -3.585,-8 -8,-8l-24,-0c-4.415,-0 -8,3.585 -8,8l-0,24c-0,4.415 3.585,8 8,8l24,-0c4.415,-0 8,-3.585 8,-8l-0,-24Z" style="fill:#bfbfbf;"/><path d="M1404,184c0,-4.415 -3.585,-8 -8,-8l-24,-0c-4.415,-0 -8,3.585 -8,8l0,24c0,4.415 3.585,8 8,8l24,-0c4.415,-0 8,-3.585 8,-8l0,-24Z" style="fill:#bfbfbf;"/><path d="M1756,184c0,-4.415 -3.585,-8 -8,-8l-24,-0c-4.415,-0 -8,3.585 -8,8l0,24c0,4.415 3.585,8 8,8l24,-0c4.415,-0 8,-3.585 8,-8l0,-24Z" style="fill:#bfbfbf;"/><path d="M1932,184c0,-4.415 -3.585,-8 -8,-8l-24,-0c-4.415,-0 -8,3.585 -8,8l0,24c0,4.415 3.585,8 8,8l24,-0c4.415,-0 8,-3.585 8,-8l0,-24Z" style="fill:#bfbfbf;"/><path d="M612,184c0,-4.415 -3.585,-8 -8,-8l-24,-0c-4.415,-0 -8,3.585 -8,8l0,24c0,4.415 3.585,8 8,8l24,-0c4.415,-0 8,-3.585 8,-8l0,-24Z" style="fill:#bfbfbf;"/><path d="M788,184c0,-4.415 -3.585,-8 -8,-8l-24,-0c-4.415,-0 -8,3.585 -8,8l0,24c0,4.415 3.585,8 8,8l24,-0c4.415,-0 8,-3.585 8,-8l0,-24Z" style="fill:#bfbfbf;"/></g></g></svg>