<?xml version="1.0" encoding="UTF-8" standalone="no"?><!DOCTYPE svg PUBLIC "-//W3C//DTD SVG 1.1//EN" "http://www.w3.org/Graphics/SVG/1.1/DTD/svg11.dtd"><svg width="100%" height="100%" viewBox="0 0 32 32" version="1.1" xmlns="http://www.w3.org/2000/svg" xmlns:xlink="http://www.w3.org/1999/xlink" xml:space="preserve" xmlns:serif="http://www.serif.com/" style="fill-rule:evenodd;clip-rule:evenodd;stroke-linejoin:round;stroke-miterlimit:2;"><rect id="settings" x="0" y="0" width="32" height="32" style="fill:none;"/><path d="M13.704,0.166c-0.829,0.12 -1.648,0.305 -2.449,0.554c0.334,1.074 0.007,1.88 -0.982,2.417c-1.061,0.375 -1.878,0.079 -2.454,-0.888c-0.72,0.429 -1.406,0.914 -2.05,1.45c0.719,0.864 0.725,1.734 0.018,2.609c-0.837,0.752 -1.706,0.792 -2.607,0.119c-0.502,0.671 -0.95,1.381 -1.34,2.123c0.996,0.524 1.334,1.325 1.015,2.404c-0.485,1.015 -1.272,1.384 -2.363,1.108c-0.206,0.812 -0.348,1.639 -0.425,2.474c1.12,0.103 1.74,0.714 1.858,1.833c-0.06,1.123 -0.646,1.765 -1.759,1.927c0.12,0.829 0.305,1.648 0.554,2.449c1.074,-0.334 1.88,-0.007 2.417,0.982c0.375,1.061 0.079,1.878 -0.888,2.454c0.429,0.72 0.914,1.406 1.45,2.05c0.864,-0.719 1.734,-0.725 2.609,-0.018c0.752,0.837 0.792,1.706 0.119,2.607c0.671,0.502 1.381,0.95 2.123,1.34c0.524,-0.996 1.325,-1.334 2.404,-1.015c1.015,0.485 1.384,1.272 1.108,2.363c0.812,0.206 1.639,0.348 2.474,0.425c0.103,-1.12 0.714,-1.74 1.833,-1.858c1.123,0.06 1.765,0.646 1.927,1.759c0.829,-0.12 1.648,-0.305 2.449,-0.554c-0.334,-1.074 -0.007,-1.88 0.982,-2.417c1.061,-0.375 1.878,-0.079 2.454,0.888c0.72,-0.429 1.406,-0.914 2.05,-1.45c-0.719,-0.864 -0.725,-1.734 -0.018,-2.609c0.837,-0.752 1.706,-0.792 2.607,-0.119c0.502,-0.671 0.95,-1.381 1.34,-2.123c-0.996,-0.524 -1.334,-1.325 -1.015,-2.404c0.485,-1.015 1.272,-1.384 2.363,-1.108c0.206,-0.812 0.348,-1.639 0.425,-2.474c-1.12,-0.103 -1.74,-0.714 -1.858,-1.833c0.06,-1.123 0.646,-1.765 1.759,-1.927c-0.12,-0.829 -0.305,-1.648 -0.554,-2.449c-1.074,0.334 -1.88,0.007 -2.417,-0.982c-0.375,-1.061 -0.079,-1.878 0.888,-2.454c-0.429,-0.72 -0.914,-1.406 -1.45,-2.05c-0.864,0.719 -1.734,0.725 -2.609,0.018c-0.752,-0.837 -0.792,-1.706 -0.119,-2.607c-0.671,-0.502 -1.381,-0.95 -2.123,-1.34c-0.524,0.996 -1.325,1.334 -2.404,1.015c-1.015,-0.485 -1.384,-1.272 -1.108,-2.363c-0.812,-0.206 -1.639,-0.348 -2.474,-0.425c-0.103,1.12 -0.714,1.74 -1.833,1.858c-1.123,-0.06 -1.765,-0.646 -1.927,-1.759Zm0.177,6.471c5.168,-1.17 10.313,2.077 11.482,7.244c1.17,5.168 -2.077,10.313 -7.244,11.482c-5.168,1.17 -10.313,-2.077 -11.482,-7.244c-1.17,-5.168 2.077,-10.313 7.244,-11.482Z" style="fill:#808080;"/></svg>