<?xml version="1.0" encoding="UTF-8" standalone="no"?><!DOCTYPE svg PUBLIC "-//W3C//DTD SVG 1.1//EN" "http://www.w3.org/Graphics/SVG/1.1/DTD/svg11.dtd"><svg width="100%" height="100%" viewBox="0 0 40 40" version="1.1" xmlns="http://www.w3.org/2000/svg" xmlns:xlink="http://www.w3.org/1999/xlink" xml:space="preserve" xmlns:serif="http://www.serif.com/" style="fill-rule:evenodd;clip-rule:evenodd;stroke-linejoin:round;stroke-miterlimit:2;"><rect id="favicon" x="-0" y="0" width="40" height="40" style="fill:none;"/><path d="M9,2.6c0,-0.883 -0.717,-1.6 -1.6,-1.6l-4.8,-0c-0.883,-0 -1.6,0.717 -1.6,1.6l0,4.8c0,0.883 0.717,1.6 1.6,1.6l4.8,-0c0.883,-0 1.6,-0.717 1.6,-1.6l0,-4.8Z" style="fill:#ccc;"/><path d="M9,12.6c0,-0.883 -0.717,-1.6 -1.6,-1.6l-4.8,-0c-0.883,-0 -1.6,0.717 -1.6,1.6l0,4.8c0,0.883 0.717,1.6 1.6,1.6l4.8,-0c0.883,-0 1.6,-0.717 1.6,-1.6l0,-4.8Z" style="fill:#ccc;"/><path d="M9,22.6c0,-0.883 -0.717,-1.6 -1.6,-1.6l-4.8,-0c-0.883,-0 -1.6,0.717 -1.6,1.6l0,4.8c0,0.883 0.717,1.6 1.6,1.6l4.8,-0c0.883,-0 1.6,-0.717 1.6,-1.6l0,-4.8Z" style="fill:#ccc;"/><path d="M9,32.6c0,-0.883 -0.717,-1.6 -1.6,-1.6l-4.8,0c-0.883,0 -1.6,0.717 -1.6,1.6l0,4.8c0,0.883 0.717,1.6 1.6,1.6l4.8,0c0.883,0 1.6,-0.717 1.6,-1.6l0,-4.8Z" style="fill:#ccc;"/><path d="M19,2.6c0,-0.883 -0.717,-1.6 -1.6,-1.6l-4.8,-0c-0.883,-0 -1.6,0.717 -1.6,1.6l0,4.8c0,0.883 0.717,1.6 1.6,1.6l4.8,-0c0.883,-0 1.6,-0.717 1.6,-1.6l0,-4.8Z" style="fill:#a67459;"/><path d="M19,12.6c0,-0.883 -0.717,-1.6 -1.6,-1.6l-4.8,-0c-0.883,-0 -1.6,0.717 -1.6,1.6l0,4.8c0,0.883 0.717,1.6 1.6,1.6l4.8,-0c0.883,-0 1.6,-0.717 1.6,-1.6l0,-4.8Z" style="fill:#a159a6;"/><path d="M19,22.6c0,-0.883 -0.717,-1.6 -1.6,-1.6l-4.8,-0c-0.883,-0 -1.6,0.717 -1.6,1.6l0,4.8c0,0.883 0.717,1.6 1.6,1.6l4.8,-0c0.883,-0 1.6,-0.717 1.6,-1.6l0,-4.8Z" style="fill:#66997e;"/><path d="M19,32.6c0,-0.883 -0.717,-1.6 -1.6,-1.6l-4.8,0c-0.883,0 -1.6,0.717 -1.6,1.6l0,4.8c0,0.883 0.717,1.6 1.6,1.6l4.8,0c0.883,0 1.6,-0.717 1.6,-1.6l0,-4.8Z" style="fill:#73768c;"/><path d="M29,2.6c0,-0.883 -0.717,-1.6 -1.6,-1.6l-4.8,-0c-0.883,-0 -1.6,0.717 -1.6,1.6l0,4.8c0,0.883 0.717,1.6 1.6,1.6l4.8,-0c0.883,-0 1.6,-0.717 1.6,-1.6l0,-4.8Z" style="fill:#adb34d;"/><path d="M29,12.6c0,-0.883 -0.717,-1.6 -1.6,-1.6l-4.8,-0c-0.883,-0 -1.6,0.717 -1.6,1.6l0,4.8c0,0.883 0.717,1.6 1.6,1.6l4.8,-0c0.883,-0 1.6,-0.717 1.6,-1.6l0,-4.8Z" style="fill:#ccc;"/><path d="M29,22.6c0,-0.883 -0.717,-1.6 -1.6,-1.6l-4.8,0c-0.883,0 -1.6,0.717 -1.6,1.6l0,4.8c0,0.883 0.717,1.6 1.6,1.6l4.8,0c0.883,0 1.6,-0.717 1.6,-1.6l0,-4.8Z" style="fill:#a67459;"/><path d="M29,32.6c0,-0.883 -0.717,-1.6 -1.6,-1.6l-4.8,0c-0.883,0 -1.6,0.717 -1.6,1.6l0,4.8c0,0.883 0.717,1.6 1.6,1.6l4.8,0c0.883,0 1.6,-0.717 1.6,-1.6l0,-4.8Z" style="fill:#ccc;"/><path d="M39,2.6c0,-0.883 -0.717,-1.6 -1.6,-1.6l-4.8,0c-0.883,0 -1.6,0.717 -1.6,1.6l0,4.8c0,0.883 0.717,1.6 1.6,1.6l4.8,0c0.883,0 1.6,-0.717 1.6,-1.6l0,-4.8Z" style="fill:#a159a6;"/><path d="M39,12.6c0,-0.883 -0.717,-1.6 -1.6,-1.6l-4.8,0c-0.883,0 -1.6,0.717 -1.6,1.6l0,4.8c0,0.883 0.717,1.6 1.6,1.6l4.8,0c0.883,0 1.6,-0.717 1.6,-1.6l0,-4.8Z" style="fill:#73768c;"/><path d="M39,22.6c0,-0.883 -0.717,-1.6 -1.6,-1.6l-4.8,0c-0.883,0 -1.6,0.717 -1.6,1.6l0,4.8c0,0.883 0.717,1.6 1.6,1.6l4.8,-0c0.883,-0 1.6,-0.717 1.6,-1.6l0,-4.8Z" style="fill:#adb34d;"/><path d="M39,32.6c-0,-0.883 -0.717,-1.6 -1.6,-1.6l-4.8,0c-0.883,0 -1.6,0.717 -1.6,1.6l0,4.8c0,0.883 0.717,1.6 1.6,1.6l4.8,0c0.883,0 1.6,-0.717 1.6,-1.6l-0,-4.8Z" style="fill:#ccc;"/></svg>