<?xml version="1.0" encoding="UTF-8" standalone="no"?><!DOCTYPE svg PUBLIC "-//W3C//DTD SVG 1.1//EN" "http://www.w3.org/Graphics/SVG/1.1/DTD/svg11.dtd"><svg width="100%" height="100%" viewBox="0 0 2165 216" version="1.1" xmlns="http://www.w3.org/2000/svg" xmlns:xlink="http://www.w3.org/1999/xlink" xml:space="preserve" xmlns:serif="http://www.serif.com/" style="fill-rule:evenodd;clip-rule:evenodd;stroke-linejoin:round;stroke-miterlimit:2;"><rect id="heading-grey" x="-0" y="0" width="2165" height="216" style="fill:none;"/><clipPath id="_clip1"><rect x="-0" y="0" width="2165" height="216"/></clipPath><g clip-path="url(#_clip1)"><g><path d="M40,8c-0,-4.415 -3.585,-8 -8,-8l-24,-0c-4.415,-0 -8,3.585 -8,8l-0,24c-0,4.415 3.585,8 8,8l24,-0c4.415,-0 8,-3.585 8,-8l-0,-24Z" style="fill:#666;"/><path d="M217,8c-0,-4.415 -3.585,-8 -8,-8l-24,-0c-4.415,-0 -8,3.585 -8,8l-0,24c-0,4.415 3.585,8 8,8l24,-0c4.415,-0 8,-3.585 8,-8l-0,-24Z" style="fill:#999;"/><path d="M394,8c-0,-4.415 -3.585,-8 -8,-8l-24,-0c-4.415,-0 -8,3.585 -8,8l-0,24c-0,4.415 3.585,8 8,8l24,-0c4.415,-0 8,-3.585 8,-8l-0,-24Z" style="fill:#808080;"/><path d="M1191,8c0,-4.415 -3.585,-8 -8,-8l-24,-0c-4.415,-0 -8,3.585 -8,8l0,24c0,4.415 3.585,8 8,8l24,-0c4.415,-0 8,-3.585 8,-8l0,-24Z" style="fill:#808080;"/><path d="M1368,8c0,-4.415 -3.585,-8 -8,-8l-24,-0c-4.415,-0 -8,3.585 -8,8l0,24c0,4.415 3.585,8 8,8l24,-0c4.415,-0 8,-3.585 8,-8l0,-24Z" style="fill:#666;"/><path d="M1545,8c0,-4.415 -3.585,-8 -8,-8l-24,-0c-4.415,-0 -8,3.585 -8,8l0,24c0,4.415 3.585,8 8,8l24,-0c4.415,-0 8,-3.585 8,-8l0,-24Z" style="fill:#808080;"/><path d="M1722,8c0,-4.415 -3.585,-8 -8,-8l-24,-0c-4.415,-0 -8,3.585 -8,8l0,24c0,4.415 3.585,8 8,8l24,-0c4.415,-0 8,-3.585 8,-8l0,-24Z" style="fill:#808080;"/><path d="M1899,8c0,-4.415 -3.585,-8 -8,-8l-24,-0c-4.415,-0 -8,3.585 -8,8l0,24c0,4.415 3.585,8 8,8l24,-0c4.415,-0 8,-3.585 8,-8l0,-24Z" style="fill:#808080;"/><path d="M2076,8c0,-4.415 -3.585,-8 -8,-8l-24,-0c-4.415,-0 -8,3.585 -8,8l0,24c0,4.415 3.585,8 8,8l24,-0c4.415,-0 8,-3.585 8,-8l0,-24Z" style="fill:#999;"/><path d="M571,8c-0,-4.415 -3.585,-8 -8,-8l-24,-0c-4.415,-0 -8,3.585 -8,8l-0,24c-0,4.415 3.585,8 8,8l24,-0c4.415,-0 8,-3.585 8,-8l-0,-24Z" style="fill:#666;"/><path d="M748,8c0,-4.415 -3.585,-8 -8,-8l-24,-0c-4.415,-0 -8,3.585 -8,8l0,24c0,4.415 3.585,8 8,8l24,-0c4.415,-0 8,-3.585 8,-8l0,-24Z" style="fill:#666;"/><path d="M1014,8c0,-4.415 -3.585,-8 -8,-8l-24,-0c-4.415,-0 -8,3.585 -8,8l0,24c0,4.415 3.585,8 8,8l24,-0c4.415,-0 8,-3.585 8,-8l0,-24Z" style="fill:#999;"/><path d="M129,8c-0,-4.415 -3.585,-8 -8,-8l-24,-0c-4.415,-0 -8,3.585 -8,8l-0,24c-0,4.415 3.585,8 8,8l24,-0c4.415,-0 8,-3.585 8,-8l-0,-24Z" style="fill:#808080;"/><path d="M306,8c-0,-4.415 -3.585,-8 -8,-8l-24,-0c-4.415,-0 -8,3.585 -8,8l-0,24c-0,4.415 3.585,8 8,8l24,-0c4.415,-0 8,-3.585 8,-8l-0,-24Z" style="fill:#808080;"/><path d="M483,8c-0,-4.415 -3.585,-8 -8,-8l-24,-0c-4.415,-0 -8,3.585 -8,8l-0,24c-0,4.415 3.585,8 8,8l24,-0c4.415,-0 8,-3.585 8,-8l-0,-24Z" style="fill:#666;"/><path d="M1280,8c0,-4.415 -3.585,-8 -8,-8l-24,-0c-4.415,-0 -8,3.585 -8,8l0,24c0,4.415 3.585,8 8,8l24,-0c4.415,-0 8,-3.585 8,-8l0,-24Z" style="fill:#808080;"/><path d="M1457,8c0,-4.415 -3.585,-8 -8,-8l-24,-0c-4.415,-0 -8,3.585 -8,8l0,24c0,4.415 3.585,8 8,8l24,-0c4.415,-0 8,-3.585 8,-8l0,-24Z" style="fill:#808080;"/><path d="M1634,8c0,-4.415 -3.585,-8 -8,-8l-24,-0c-4.415,-0 -8,3.585 -8,8l0,24c0,4.415 3.585,8 8,8l24,-0c4.415,-0 8,-3.585 8,-8l0,-24Z" style="fill:#999;"/><path d="M1811,8c0,-4.415 -3.585,-8 -8,-8l-24,-0c-4.415,-0 -8,3.585 -8,8l0,24c0,4.415 3.585,8 8,8l24,-0c4.415,-0 8,-3.585 8,-8l0,-24Z" style="fill:#666;"/><path d="M1988,8c0,-4.415 -3.585,-8 -8,-8l-24,-0c-4.415,-0 -8,3.585 -8,8l0,24c0,4.415 3.585,8 8,8l24,-0c4.415,-0 8,-3.585 8,-8l0,-24Z" style="fill:#999;"/><path d="M2165,8c0,-4.415 -3.585,-8 -8,-8l-24,-0c-4.415,-0 -8,3.585 -8,8l0,24c0,4.415 3.585,8 8,8l24,-0c4.415,-0 8,-3.585 8,-8l0,-24Z" style="fill:#666;"/><path d="M660,8c0,-4.415 -3.585,-8 -8,-8l-24,-0c-4.415,-0 -8,3.585 -8,8l0,24c0,4.415 3.585,8 8,8l24,-0c4.415,-0 8,-3.585 8,-8l0,-24Z" style="fill:#808080;"/><path d="M1103,8c0,-4.415 -3.585,-8 -8,-8l-24,-0c-4.415,-0 -8,3.585 -8,8l0,24c0,4.415 3.585,8 8,8l24,-0c4.415,-0 8,-3.585 8,-8l0,-24Z" style="fill:#808080;"/><path d="M85,8c-0,-4.415 -3.585,-8 -8,-8l-24,-0c-4.415,-0 -8,3.585 -8,8l-0,24c-0,4.415 3.585,8 8,8l24,-0c4.415,-0 8,-3.585 8,-8l-0,-24Z" style="fill:#999;"/><path d="M262,8c-0,-4.415 -3.585,-8 -8,-8l-24,-0c-4.415,-0 -8,3.585 -8,8l-0,24c-0,4.415 3.585,8 8,8l24,-0c4.415,-0 8,-3.585 8,-8l-0,-24Z" style="fill:#666;"/><path d="M1236,8c0,-4.415 -3.585,-8 -8,-8l-24,-0c-4.415,-0 -8,3.585 -8,8l0,24c0,4.415 3.585,8 8,8l24,-0c4.415,-0 8,-3.585 8,-8l0,-24Z" style="fill:#666;"/><path d="M1413,8c0,-4.415 -3.585,-8 -8,-8l-24,-0c-4.415,-0 -8,3.585 -8,8l0,24c0,4.415 3.585,8 8,8l24,-0c4.415,-0 8,-3.585 8,-8l0,-24Z" style="fill:#999;"/><path d="M1590,8c0,-4.415 -3.585,-8 -8,-8l-24,-0c-4.415,-0 -8,3.585 -8,8l0,24c0,4.415 3.585,8 8,8l24,-0c4.415,-0 8,-3.585 8,-8l0,-24Z" style="fill:#666;"/><path d="M1767,8c0,-4.415 -3.585,-8 -8,-8l-24,-0c-4.415,-0 -8,3.585 -8,8l0,24c0,4.415 3.585,8 8,8l24,-0c4.415,-0 8,-3.585 8,-8l0,-24Z" style="fill:#999;"/><path d="M1944,8c0,-4.415 -3.585,-8 -8,-8l-24,-0c-4.415,-0 -8,3.585 -8,8l0,24c0,4.415 3.585,8 8,8l24,-0c4.415,-0 8,-3.585 8,-8l0,-24Z" style="fill:#666;"/><path d="M2121,8c0,-4.415 -3.585,-8 -8,-8l-24,-0c-4.415,-0 -8,3.585 -8,8l0,24c0,4.415 3.585,8 8,8l24,-0c4.415,-0 8,-3.585 8,-8l0,-24Z" style="fill:#808080;"/><path d="M616,8c-0,-4.415 -3.585,-8 -8,-8l-24,-0c-4.415,-0 -8,3.585 -8,8l-0,24c-0,4.415 3.585,8 8,8l24,-0c4.415,-0 8,-3.585 8,-8l-0,-24Z" style="fill:#999;"/><path d="M1059,8c0,-4.415 -3.585,-8 -8,-8l-24,-0c-4.415,-0 -8,3.585 -8,8l0,24c0,4.415 3.585,8 8,8l24,-0c4.415,-0 8,-3.585 8,-8l0,-24Z" style="fill:#666;"/><path d="M262,52c-0,-4.415 -3.585,-8 -8,-8l-24,-0c-4.415,-0 -8,3.585 -8,8l-0,24c-0,4.415 3.585,8 8,8l24,-0c4.415,-0 8,-3.585 8,-8l-0,-24Z" style="fill:#999;"/><path d="M1413,52c0,-4.415 -3.585,-8 -8,-8l-24,-0c-4.415,-0 -8,3.585 -8,8l0,24c0,4.415 3.585,8 8,8l24,-0c4.415,-0 8,-3.585 8,-8l0,-24Z" style="fill:#808080;"/><path d="M1767,52c0,-4.415 -3.585,-8 -8,-8l-24,-0c-4.415,-0 -8,3.585 -8,8l0,24c0,4.415 3.585,8 8,8l24,-0c4.415,-0 8,-3.585 8,-8l0,-24Z" style="fill:#666;"/><path d="M40,52c-0,-4.415 -3.585,-8 -8,-8l-24,-0c-4.415,-0 -8,3.585 -8,8l-0,24c-0,4.415 3.585,8 8,8l24,-0c4.415,-0 8,-3.585 8,-8l-0,-24Z" style="fill:#999;"/><path d="M394,52c-0,-4.415 -3.585,-8 -8,-8l-24,-0c-4.415,-0 -8,3.585 -8,8l-0,24c-0,4.415 3.585,8 8,8l24,-0c4.415,-0 8,-3.585 8,-8l-0,-24Z" style="fill:#999;"/><path d="M1191,52c0,-4.415 -3.585,-8 -8,-8l-24,-0c-4.415,-0 -8,3.585 -8,8l0,24c0,4.415 3.585,8 8,8l24,-0c4.415,-0 8,-3.585 8,-8l0,-24Z" style="fill:#666;"/><path d="M1545,52c0,-4.415 -3.585,-8 -8,-8l-24,-0c-4.415,-0 -8,3.585 -8,8l0,24c0,4.415 3.585,8 8,8l24,-0c4.415,-0 8,-3.585 8,-8l0,-24Z" style="fill:#666;"/><path d="M1899,52c0,-4.415 -3.585,-8 -8,-8l-24,-0c-4.415,-0 -8,3.585 -8,8l0,24c0,4.415 3.585,8 8,8l24,-0c4.415,-0 8,-3.585 8,-8l0,-24Z" style="fill:#999;"/><path d="M2076,52c0,-4.415 -3.585,-8 -8,-8l-24,-0c-4.415,-0 -8,3.585 -8,8l0,24c0,4.415 3.585,8 8,8l24,-0c4.415,-0 8,-3.585 8,-8l0,-24Z" style="fill:#666;"/><path d="M571,52c-0,-4.415 -3.585,-8 -8,-8l-24,-0c-4.415,-0 -8,3.585 -8,8l-0,24c-0,4.415 3.585,8 8,8l24,-0c4.415,-0 8,-3.585 8,-8l-0,-24Z" style="fill:#999;"/><path d="M748,52c0,-4.415 -3.585,-8 -8,-8l-24,-0c-4.415,-0 -8,3.585 -8,8l0,24c0,4.415 3.585,8 8,8l24,-0c4.415,-0 8,-3.585 8,-8l0,-24Z" style="fill:#808080;"/><path d="M1014,52c0,-4.415 -3.585,-8 -8,-8l-24,-0c-4.415,-0 -8,3.585 -8,8l0,24c0,4.415 3.585,8 8,8l24,-0c4.415,-0 8,-3.585 8,-8l0,-24Z" style="fill:#808080;"/><path d="M129,52c-0,-4.415 -3.585,-8 -8,-8l-24,-0c-4.415,-0 -8,3.585 -8,8l-0,24c-0,4.415 3.585,8 8,8l24,-0c4.415,-0 8,-3.585 8,-8l-0,-24Z" style="fill:#666;"/><path d="M483,52c-0,-4.415 -3.585,-8 -8,-8l-24,-0c-4.415,-0 -8,3.585 -8,8l-0,24c-0,4.415 3.585,8 8,8l24,-0c4.415,-0 8,-3.585 8,-8l-0,-24Z" style="fill:#808080;"/><path d="M1280,52c0,-4.415 -3.585,-8 -8,-8l-24,-0c-4.415,-0 -8,3.585 -8,8l0,24c0,4.415 3.585,8 8,8l24,-0c4.415,-0 8,-3.585 8,-8l0,-24Z" style="fill:#999;"/><path d="M1634,52c0,-4.415 -3.585,-8 -8,-8l-24,-0c-4.415,-0 -8,3.585 -8,8l0,24c0,4.415 3.585,8 8,8l24,-0c4.415,-0 8,-3.585 8,-8l0,-24Z" style="fill:#808080;"/><path d="M2165,52c0,-4.415 -3.585,-8 -8,-8l-24,-0c-4.415,-0 -8,3.585 -8,8l0,24c0,4.415 3.585,8 8,8l24,-0c4.415,-0 8,-3.585 8,-8l0,-24Z" style="fill:#999;"/><path d="M1103,52c0,-4.415 -3.585,-8 -8,-8l-24,-0c-4.415,-0 -8,3.585 -8,8l0,24c0,4.415 3.585,8 8,8l24,-0c4.415,-0 8,-3.585 8,-8l0,-24Z" style="fill:#666;"/><path d="M40,96c-0,-4.415 -3.585,-8 -8,-8l-24,-0c-4.415,-0 -8,3.585 -8,8l-0,24c-0,4.415 3.585,8 8,8l24,-0c4.415,-0 8,-3.585 8,-8l-0,-24Z" style="fill:#808080;"/><path d="M1191,96c0,-4.415 -3.585,-8 -8,-8l-24,-0c-4.415,-0 -8,3.585 -8,8l0,24c0,4.415 3.585,8 8,8l24,-0c4.415,-0 8,-3.585 8,-8l0,-24Z" style="fill:#808080;"/><path d="M1545,96c0,-4.415 -3.585,-8 -8,-8l-24,-0c-4.415,-0 -8,3.585 -8,8l0,24c0,4.415 3.585,8 8,8l24,-0c4.415,-0 8,-3.585 8,-8l0,-24Z" style="fill:#999;"/><path d="M1899,96c0,-4.415 -3.585,-8 -8,-8l-24,-0c-4.415,-0 -8,3.585 -8,8l0,24c0,4.415 3.585,8 8,8l24,-0c4.415,-0 8,-3.585 8,-8l0,-24Z" style="fill:#808080;"/><path d="M2076,96c0,-4.415 -3.585,-8 -8,-8l-24,-0c-4.415,-0 -8,3.585 -8,8l0,24c0,4.415 3.585,8 8,8l24,-0c4.415,-0 8,-3.585 8,-8l0,-24Z" style="fill:#808080;"/><path d="M571,96c-0,-4.415 -3.585,-8 -8,-8l-24,-0c-4.415,-0 -8,3.585 -8,8l-0,24c-0,4.415 3.585,8 8,8l24,-0c4.415,-0 8,-3.585 8,-8l-0,-24Z" style="fill:#808080;"/><path d="M748,96c0,-4.415 -3.585,-8 -8,-8l-24,-0c-4.415,-0 -8,3.585 -8,8l0,24c0,4.415 3.585,8 8,8l24,-0c4.415,-0 8,-3.585 8,-8l0,-24Z" style="fill:#999;"/><path d="M1014,96c0,-4.415 -3.585,-8 -8,-8l-24,-0c-4.415,-0 -8,3.585 -8,8l0,24c0,4.415 3.585,8 8,8l24,-0c4.415,-0 8,-3.585 8,-8l0,-24Z" style="fill:#666;"/><path d="M129,96c-0,-4.415 -3.585,-8 -8,-8l-24,-0c-4.415,-0 -8,3.585 -8,8l-0,24c-0,4.415 3.585,8 8,8l24,-0c4.415,-0 8,-3.585 8,-8l-0,-24Z" style="fill:#999;"/><path d="M1280,96c0,-4.415 -3.585,-8 -8,-8l-24,-0c-4.415,-0 -8,3.585 -8,8l0,24c0,4.415 3.585,8 8,8l24,-0c4.415,-0 8,-3.585 8,-8l0,-24Z" style="fill:#666;"/><path d="M1634,96c0,-4.415 -3.585,-8 -8,-8l-24,-0c-4.415,-0 -8,3.585 -8,8l0,24c0,4.415 3.585,8 8,8l24,-0c4.415,-0 8,-3.585 8,-8l0,-24Z" style="fill:#666;"/><path d="M1103,96c0,-4.415 -3.585,-8 -8,-8l-24,-0c-4.415,-0 -8,3.585 -8,8l0,24c0,4.415 3.585,8 8,8l24,-0c4.415,-0 8,-3.585 8,-8l0,-24Z" style="fill:#808080;"/><path d="M40,140c-0,-4.415 -3.585,-8 -8,-8l-24,-0c-4.415,-0 -8,3.585 -8,8l-0,24c-0,4.415 3.585,8 8,8l24,-0c4.415,-0 8,-3.585 8,-8l-0,-24Z" style="fill:#999;"/><path d="M394,140c-0,-4.415 -3.585,-8 -8,-8l-24,-0c-4.415,-0 -8,3.585 -8,8l-0,24c-0,4.415 3.585,8 8,8l24,-0c4.415,-0 8,-3.585 8,-8l-0,-24Z" style="fill:#808080;"/><path d="M1191,140c0,-4.415 -3.585,-8 -8,-8l-24,-0c-4.415,-0 -8,3.585 -8,8l0,24c0,4.415 3.585,8 8,8l24,-0c4.415,-0 8,-3.585 8,-8l0,-24Z" style="fill:#666;"/><path d="M1545,140c0,-4.415 -3.585,-8 -8,-8l-24,-0c-4.415,-0 -8,3.585 -8,8l0,24c0,4.415 3.585,8 8,8l24,-0c4.415,-0 8,-3.585 8,-8l0,-24Z" style="fill:#808080;"/><path d="M1899,140c0,-4.415 -3.585,-8 -8,-8l-24,-0c-4.415,-0 -8,3.585 -8,8l0,24c0,4.415 3.585,8 8,8l24,-0c4.415,-0 8,-3.585 8,-8l0,-24Z" style="fill:#666;"/><path d="M2076,140c0,-4.415 -3.585,-8 -8,-8l-24,-0c-4.415,-0 -8,3.585 -8,8l0,24c0,4.415 3.585,8 8,8l24,-0c4.415,-0 8,-3.585 8,-8l0,-24Z" style="fill:#666;"/><path d="M571,140c0,-4.415 -3.585,-8 -8,-8l-24,-0c-4.415,-0 -8,3.585 -8,8l0,24c0,4.415 3.585,8 8,8l24,-0c4.415,-0 8,-3.585 8,-8l0,-24Z" style="fill:#666;"/><path d="M748,140c0,-4.415 -3.585,-8 -8,-8l-24,-0c-4.415,-0 -8,3.585 -8,8l0,24c0,4.415 3.585,8 8,8l24,-0c4.415,-0 8,-3.585 8,-8l0,-24Z" style="fill:#666;"/><path d="M1014,140c0,-4.415 -3.585,-8 -8,-8l-24,-0c-4.415,-0 -8,3.585 -8,8l0,24c0,4.415 3.585,8 8,8l24,-0c4.415,-0 8,-3.585 8,-8l0,-24Z" style="fill:#999;"/><path d="M483,140c-0,-4.415 -3.585,-8 -8,-8l-24,-0c-4.415,-0 -8,3.585 -8,8l-0,24c-0,4.415 3.585,8 8,8l24,-0c4.415,-0 8,-3.585 8,-8l-0,-24Z" style="fill:#666;"/><path d="M1280,140c0,-4.415 -3.585,-8 -8,-8l-24,-0c-4.415,-0 -8,3.585 -8,8l0,24c0,4.415 3.585,8 8,8l24,-0c4.415,-0 8,-3.585 8,-8l0,-24Z" style="fill:#999;"/><path d="M1634,140c0,-4.415 -3.585,-8 -8,-8l-24,-0c-4.415,-0 -8,3.585 -8,8l0,24c0,4.415 3.585,8 8,8l24,-0c4.415,-0 8,-3.585 8,-8l0,-24Z" style="fill:#999;"/><path d="M2165,140c0,-4.415 -3.585,-8 -8,-8l-24,-0c-4.415,-0 -8,3.585 -8,8l0,24c0,4.415 3.585,8 8,8l24,-0c4.415,-0 8,-3.585 8,-8l0,-24Z" style="fill:#808080;"/><path d="M85,96c-0,-4.415 -3.585,-8 -8,-8l-24,-0c-4.415,-0 -8,3.585 -8,8l-0,24c-0,4.415 3.585,8 8,8l24,-0c4.415,-0 8,-3.585 8,-8l-0,-24Z" style="fill:#666;"/><path d="M262,96c-0,-4.415 -3.585,-8 -8,-8l-24,-0c-4.415,-0 -8,3.585 -8,8l-0,24c-0,4.415 3.585,8 8,8l24,-0c4.415,-0 8,-3.585 8,-8l-0,-24Z" style="fill:#808080;"/><path d="M439,96c-0,-4.415 -3.585,-8 -8,-8l-24,-0c-4.415,-0 -8,3.585 -8,8l-0,24c-0,4.415 3.585,8 8,8l24,-0c4.415,-0 8,-3.585 8,-8l-0,-24Z" style="fill:#999;"/><path d="M1236,96c0,-4.415 -3.585,-8 -8,-8l-24,-0c-4.415,-0 -8,3.585 -8,8l0,24c0,4.415 3.585,8 8,8l24,-0c4.415,-0 8,-3.585 8,-8l0,-24Z" style="fill:#999;"/><path d="M1413,96c0,-4.415 -3.585,-8 -8,-8l-24,-0c-4.415,-0 -8,3.585 -8,8l0,24c0,4.415 3.585,8 8,8l24,-0c4.415,-0 8,-3.585 8,-8l0,-24Z" style="fill:#999;"/><path d="M1767,96c0,-4.415 -3.585,-8 -8,-8l-24,-0c-4.415,-0 -8,3.585 -8,8l0,24c0,4.415 3.585,8 8,8l24,-0c4.415,-0 8,-3.585 8,-8l0,-24Z" style="fill:#808080;"/><path d="M1944,96c0,-4.415 -3.585,-8 -8,-8l-24,-0c-4.415,-0 -8,3.585 -8,8l0,24c0,4.415 3.585,8 8,8l24,-0c4.415,-0 8,-3.585 8,-8l0,-24Z" style="fill:#666;"/><path d="M2121,96c0,-4.415 -3.585,-8 -8,-8l-24,-0c-4.415,-0 -8,3.585 -8,8l0,24c0,4.415 3.585,8 8,8l24,-0c4.415,-0 8,-3.585 8,-8l0,-24Z" style="fill:#999;"/><path d="M616,96c-0,-4.415 -3.585,-8 -8,-8l-24,-0c-4.415,-0 -8,3.585 -8,8l-0,24c-0,4.415 3.585,8 8,8l24,-0c4.415,-0 8,-3.585 8,-8l-0,-24Z" style="fill:#666;"/><path d="M1059,96c0,-4.415 -3.585,-8 -8,-8l-24,-0c-4.415,-0 -8,3.585 -8,8l0,24c0,4.415 3.585,8 8,8l24,-0c4.415,-0 8,-3.585 8,-8l0,-24Z" style="fill:#999;"/><path d="M262,140c-0,-4.415 -3.585,-8 -8,-8l-24,-0c-4.415,-0 -8,3.585 -8,8l-0,24c-0,4.415 3.585,8 8,8l24,-0c4.415,-0 8,-3.585 8,-8l-0,-24Z" style="fill:#666;"/><path d="M1413,140c0,-4.415 -3.585,-8 -8,-8l-24,-0c-4.415,-0 -8,3.585 -8,8l0,24c0,4.415 3.585,8 8,8l24,-0c4.415,-0 8,-3.585 8,-8l0,-24Z" style="fill:#666;"/><path d="M1767,140c0,-4.415 -3.585,-8 -8,-8l-24,-0c-4.415,-0 -8,3.585 -8,8l0,24c0,4.415 3.585,8 8,8l24,-0c4.415,-0 8,-3.585 8,-8l0,-24Z" style="fill:#999;"/><path d="M40,184c-0,-4.415 -3.585,-8 -8,-8l-24,-0c-4.415,-0 -8,3.585 -8,8l-0,24c-0,4.415 3.585,8 8,8l24,-0c4.415,-0 8,-3.585 8,-8l-0,-24Z" style="fill:#666;"/><path d="M217,184c-0,-4.415 -3.585,-8 -8,-8l-24,-0c-4.415,-0 -8,3.585 -8,8l-0,24c-0,4.415 3.585,8 8,8l24,-0c4.415,-0 8,-3.585 8,-8l-0,-24Z" style="fill:#808080;"/><path d="M394,184c-0,-4.415 -3.585,-8 -8,-8l-24,-0c-4.415,-0 -8,3.585 -8,8l-0,24c-0,4.415 3.585,8 8,8l24,-0c4.415,-0 8,-3.585 8,-8l-0,-24Z" style="fill:#666;"/><path d="M1191,184c0,-4.415 -3.585,-8 -8,-8l-24,-0c-4.415,-0 -8,3.585 -8,8l0,24c0,4.415 3.585,8 8,8l24,-0c4.415,-0 8,-3.585 8,-8l0,-24Z" style="fill:#999;"/><path d="M1368,184c0,-4.415 -3.585,-8 -8,-8l-24,-0c-4.415,-0 -8,3.585 -8,8l0,24c0,4.415 3.585,8 8,8l24,-0c4.415,-0 8,-3.585 8,-8l0,-24Z" style="fill:#999;"/><path d="M1545,184c0,-4.415 -3.585,-8 -8,-8l-24,-0c-4.415,-0 -8,3.585 -8,8l0,24c0,4.415 3.585,8 8,8l24,-0c4.415,-0 8,-3.585 8,-8l0,-24Z" style="fill:#808080;"/><path d="M1899,184c0,-4.415 -3.585,-8 -8,-8l-24,-0c-4.415,-0 -8,3.585 -8,8l0,24c0,4.415 3.585,8 8,8l24,-0c4.415,-0 8,-3.585 8,-8l0,-24Z" style="fill:#808080;"/><path d="M2076,184c0,-4.415 -3.585,-8 -8,-8l-24,-0c-4.415,-0 -8,3.585 -8,8l0,24c0,4.415 3.585,8 8,8l24,-0c4.415,-0 8,-3.585 8,-8l0,-24Z" style="fill:#808080;"/><path d="M571,184c-0,-4.415 -3.585,-8 -8,-8l-24,-0c-4.415,-0 -8,3.585 -8,8l-0,24c-0,4.415 3.585,8 8,8l24,-0c4.415,-0 8,-3.585 8,-8l-0,-24Z" style="fill:#808080;"/><path d="M748,184c0,-4.415 -3.585,-8 -8,-8l-24,-0c-4.415,-0 -8,3.585 -8,8l0,24c0,4.415 3.585,8 8,8l24,-0c4.415,-0 8,-3.585 8,-8l0,-24Z" style="fill:#808080;"/><path d="M1014,184c0,-4.415 -3.585,-8 -8,-8l-24,-0c-4.415,-0 -8,3.585 -8,8l0,24c0,4.415 3.585,8 8,8l24,-0c4.415,-0 8,-3.585 8,-8l0,-24Z" style="fill:#808080;"/><path d="M306,184c-0,-4.415 -3.585,-8 -8,-8l-24,-0c-4.415,-0 -8,3.585 -8,8l-0,24c-0,4.415 3.585,8 8,8l24,-0c4.415,-0 8,-3.585 8,-8l-0,-24Z" style="fill:#666;"/><path d="M483,184c-0,-4.415 -3.585,-8 -8,-8l-24,-0c-4.415,-0 -8,3.585 -8,8l-0,24c-0,4.415 3.585,8 8,8l24,-0c4.415,-0 8,-3.585 8,-8l-0,-24Z" style="fill:#999;"/><path d="M1280,184c0,-4.415 -3.585,-8 -8,-8l-24,-0c-4.415,-0 -8,3.585 -8,8l0,24c0,4.415 3.585,8 8,8l24,-0c4.415,-0 8,-3.585 8,-8l0,-24Z" style="fill:#808080;"/><path d="M1457,184c0,-4.415 -3.585,-8 -8,-8l-24,-0c-4.415,-0 -8,3.585 -8,8l0,24c0,4.415 3.585,8 8,8l24,-0c4.415,-0 8,-3.585 8,-8l0,-24Z" style="fill:#666;"/><path d="M1634,184c0,-4.415 -3.585,-8 -8,-8l-24,-0c-4.415,-0 -8,3.585 -8,8l0,24c0,4.415 3.585,8 8,8l24,-0c4.415,-0 8,-3.585 8,-8l0,-24Z" style="fill:#808080;"/><path d="M1988,184c0,-4.415 -3.585,-8 -8,-8l-24,-0c-4.415,-0 -8,3.585 -8,8l0,24c0,4.415 3.585,8 8,8l24,-0c4.415,-0 8,-3.585 8,-8l0,-24Z" style="fill:#666;"/><path d="M2165,184c0,-4.415 -3.585,-8 -8,-8l-24,-0c-4.415,-0 -8,3.585 -8,8l0,24c0,4.415 3.585,8 8,8l24,-0c4.415,-0 8,-3.585 8,-8l0,-24Z" style="fill:#999;"/><path d="M660,184c0,-4.415 -3.585,-8 -8,-8l-24,-0c-4.415,-0 -8,3.585 -8,8l0,24c0,4.415 3.585,8 8,8l24,-0c4.415,-0 8,-3.585 8,-8l0,-24Z" style="fill:#666;"/><path d="M837,184c0,-4.415 -3.585,-8 -8,-8l-24,-0c-4.415,-0 -8,3.585 -8,8l0,24c0,4.415 3.585,8 8,8l24,-0c4.415,-0 8,-3.585 8,-8l0,-24Z" style="fill:#999;"/><path d="M262,184c-0,-4.415 -3.585,-8 -8,-8l-24,-0c-4.415,-0 -8,3.585 -8,8l-0,24c-0,4.415 3.585,8 8,8l24,-0c4.415,-0 8,-3.585 8,-8l-0,-24Z" style="fill:#999;"/><path d="M1413,184c0,-4.415 -3.585,-8 -8,-8l-24,-0c-4.415,-0 -8,3.585 -8,8l0,24c0,4.415 3.585,8 8,8l24,-0c4.415,-0 8,-3.585 8,-8l0,-24Z" style="fill:#808080;"/><path d="M1767,184c0,-4.415 -3.585,-8 -8,-8l-24,-0c-4.415,-0 -8,3.585 -8,8l0,24c0,4.415 3.585,8 8,8l24,-0c4.415,-0 8,-3.585 8,-8l0,-24Z" style="fill:#808080;"/><path d="M1944,184c0,-4.415 -3.585,-8 -8,-8l-24,-0c-4.415,-0 -8,3.585 -8,8l0,24c0,4.415 3.585,8 8,8l24,-0c4.415,-0 8,-3.585 8,-8l0,-24Z" style="fill:#999;"/><path d="M616,184c-0,-4.415 -3.585,-8 -8,-8l-24,-0c-4.415,-0 -8,3.585 -8,8l-0,24c-0,4.415 3.585,8 8,8l24,-0c4.415,-0 8,-3.585 8,-8l-0,-24Z" style="fill:#999;"/><path d="M793,184c0,-4.415 -3.585,-8 -8,-8l-24,-0c-4.415,-0 -8,3.585 -8,8l0,24c0,4.415 3.585,8 8,8l24,-0c4.415,-0 8,-3.585 8,-8l0,-24Z" style="fill:#666;"/></g></g></svg>